<svg width="24" height="24" viewBox="0 0 24 24" fill="none" xmlns="http://www.w3.org/2000/svg">
<g clip-path="url(#clip0_902_4026)">
<path d="M12 14.625C11.0729 14.625 10.1666 14.8999 9.39577 15.415C8.62491 15.9301 8.0241 16.6621 7.66932 17.5187C7.31453 18.3752 7.2217 19.3177 7.40257 20.227C7.58344 21.1363 8.02988 21.9715 8.68544 22.6271C9.341 23.2826 10.1762 23.7291 11.0855 23.9099C11.9948 24.0908 12.9373 23.998 13.7938 23.6432C14.6504 23.2884 15.3824 22.6876 15.8975 21.9167C16.4126 21.1459 16.6875 20.2396 16.6875 19.3125C16.6861 18.0697 16.1918 16.8782 15.313 15.9995C14.4343 15.1207 13.2428 14.6264 12 14.625ZM11.625 18.9375H12.375C12.9954 18.9375 13.5 19.3862 13.5 19.9376V20.5626C13.5 21.1138 12.9954 21.5625 12.375 21.5625V22.125C12.375 22.2245 12.3355 22.3198 12.2652 22.3902C12.1948 22.4605 12.0995 22.5 12 22.5C11.9005 22.5 11.8052 22.4605 11.7348 22.3902C11.6645 22.3198 11.625 22.2245 11.625 22.125V21.5625C11.0046 21.5625 10.5 21.114 10.5 20.5626C10.5 20.4631 10.5395 20.3677 10.6098 20.2974C10.6802 20.2271 10.7755 20.1876 10.875 20.1876C10.9745 20.1876 11.0698 20.2271 11.1402 20.2974C11.2105 20.3677 11.25 20.4631 11.25 20.5626C11.25 20.6807 11.4039 20.8125 11.625 20.8125H12.375C12.5961 20.8125 12.75 20.6809 12.75 20.5626V19.9376C12.75 19.8193 12.5961 19.6875 12.375 19.6875H11.625C11.0046 19.6875 10.5 19.239 10.5 18.6876V18.0626C10.5 17.5112 11.0046 17.0625 11.625 17.0625V16.5C11.625 16.4005 11.6645 16.3052 11.7348 16.2348C11.8052 16.1645 11.9005 16.125 12 16.125C12.0995 16.125 12.1948 16.1645 12.2652 16.2348C12.3355 16.3052 12.375 16.4005 12.375 16.5V17.0625C12.9954 17.0625 13.5 17.5112 13.5 18.0626C13.5 18.1621 13.4605 18.2575 13.3902 18.3278C13.3198 18.3981 13.2245 18.4376 13.125 18.4376C13.0255 18.4376 12.9302 18.3981 12.8598 18.3278C12.7895 18.2575 12.75 18.1621 12.75 18.0626C12.75 17.9443 12.5961 17.8125 12.375 17.8125H11.625C11.4039 17.8125 11.25 17.9443 11.25 18.0626V18.6876C11.25 18.8057 11.4039 18.9375 11.625 18.9375Z" fill="#333333"/>
<path d="M7.75688 15.9176C8.26533 15.2803 8.91081 14.7657 9.64537 14.4121C10.3799 14.0584 11.1847 13.8748 12 13.8748C12.8153 13.8748 13.6201 14.0584 14.3546 14.4121C15.0892 14.7657 15.7347 15.2803 16.2431 15.9176C16.8585 15.3318 17.3482 14.627 17.6824 13.8459C18.0167 13.0649 18.1885 12.224 18.1875 11.3745C18.1875 9.29077 16.0208 6.22271 14.1677 3.98021L15.3351 1.65521C15.3646 1.59644 15.3781 1.53095 15.3743 1.46529C15.3705 1.39964 15.3496 1.33614 15.3135 1.28115C15.2843 1.23671 14.5841 0.188959 13.4498 0.0288342C13.1436 -0.00748923 12.8333 0.0170986 12.5366 0.101182C12.24 0.185266 11.9629 0.327185 11.7214 0.518772C11.5083 0.331741 11.2592 0.190398 10.9894 0.103484C10.7195 0.0165688 10.4347 -0.0140708 10.1526 0.0134592C9.04669 0.146397 8.3385 1.23915 8.30869 1.28546C8.27218 1.34289 8.25196 1.40917 8.25021 1.47721C8.24846 1.54524 8.26524 1.61247 8.29875 1.67171L9.69825 4.14296C7.8765 6.36971 5.8125 9.34102 5.8125 11.3748C5.81147 12.2244 5.98331 13.0653 6.31758 13.8463C6.65185 14.6273 7.14155 15.3322 7.75688 15.918V15.9176ZM11.625 9.37515H12.375C12.6733 9.37549 12.9592 9.49413 13.1701 9.70504C13.381 9.91594 13.4997 10.2019 13.5 10.5001V11.2501C13.4997 11.5484 13.381 11.8344 13.1701 12.0453C12.9592 12.2562 12.6733 12.3748 12.375 12.3751V13.1251C12.375 13.2246 12.3355 13.32 12.2652 13.3903C12.1948 13.4606 12.0995 13.5001 12 13.5001C11.9005 13.5001 11.8052 13.4606 11.7348 13.3903C11.6645 13.32 11.625 13.2246 11.625 13.1251V12.3751C11.3267 12.3748 11.0408 12.2562 10.8299 12.0453C10.619 11.8344 10.5004 11.5484 10.5 11.2501C10.5 11.1507 10.5395 11.0553 10.6098 10.985C10.6802 10.9147 10.7755 10.8751 10.875 10.8751C10.9745 10.8751 11.0698 10.9147 11.1402 10.985C11.2105 11.0553 11.25 11.1507 11.25 11.2501C11.2501 11.3496 11.2896 11.4449 11.3599 11.5152C11.4303 11.5855 11.5256 11.625 11.625 11.6251H12.375C12.4744 11.625 12.5698 11.5855 12.6401 11.5152C12.7104 11.4449 12.7499 11.3496 12.75 11.2501V10.5001C12.7499 10.4007 12.7104 10.3054 12.6401 10.2351C12.5698 10.1648 12.4744 10.1252 12.375 10.1251H11.625C11.3267 10.1248 11.0408 10.0062 10.8299 9.79526C10.619 9.58436 10.5004 9.29841 10.5 9.00015V8.25015C10.5004 7.95188 10.619 7.66594 10.8299 7.45504C11.0408 7.24413 11.3267 7.12549 11.625 7.12515V6.37515C11.625 6.27569 11.6645 6.18031 11.7348 6.10998C11.8052 6.03966 11.9005 6.00015 12 6.00015C12.0995 6.00015 12.1948 6.03966 12.2652 6.10998C12.3355 6.18031 12.375 6.27569 12.375 6.37515V7.12515C12.6733 7.12549 12.9592 7.24413 13.1701 7.45504C13.381 7.66594 13.4997 7.95188 13.5 8.25015C13.5 8.3496 13.4605 8.44499 13.3902 8.51531C13.3198 8.58564 13.2245 8.62515 13.125 8.62515C13.0255 8.62515 12.9302 8.58564 12.8598 8.51531C12.7895 8.44499 12.75 8.3496 12.75 8.25015C12.7499 8.15072 12.7104 8.0554 12.6401 7.98509C12.5698 7.91479 12.4744 7.87525 12.375 7.87515H11.625C11.5256 7.87525 11.4303 7.91479 11.3599 7.98509C11.2896 8.0554 11.2501 8.15072 11.25 8.25015V9.00015C11.2501 9.09957 11.2896 9.1949 11.3599 9.2652C11.4303 9.33551 11.5256 9.37505 11.625 9.37515ZM9.07163 1.51477C9.27732 1.26277 9.70913 0.820647 10.2452 0.757647C10.6356 0.711334 11.0374 0.883084 11.4381 1.2669C11.5079 1.33381 11.6009 1.37116 11.6976 1.37115H11.7219C11.8115 1.37111 11.8981 1.33905 11.9661 1.28077C12.4318 0.880834 12.8942 0.709272 13.3406 0.770772C13.9119 0.849522 14.3535 1.28583 14.5594 1.52902L13.4441 3.75015H10.3376L9.07163 1.51477Z" fill="#333333"/>
<path d="M4.6875 20.0625C5.33754 20.0628 5.98049 19.9275 6.57525 19.6652C6.56721 19.5478 6.56296 19.4302 6.5625 19.3125C6.5625 19.1831 6.56869 19.0556 6.5775 18.9285V18.9281C6.58125 18.8944 6.58312 18.8588 6.585 18.8231L6.58556 18.8229C6.65765 18.0158 6.91052 17.2353 7.32544 16.5392C6.69461 15.9578 6.1755 15.2658 5.79375 14.4975C5.69776 14.4931 5.60716 14.4519 5.54081 14.3824C5.47445 14.3129 5.43745 14.2205 5.4375 14.1244C5.4375 14.0063 5.28375 13.875 5.0625 13.875H4.3125C4.09125 13.875 3.9375 14.0063 3.9375 14.1244V14.7506C3.9375 14.8687 4.09125 15 4.3125 15H5.0625C5.68313 15 6.1875 15.4481 6.1875 15.9994V16.6256C6.1875 17.1769 5.68313 17.625 5.0625 17.625V18.1875C5.0625 18.287 5.02299 18.3823 4.95266 18.4527C4.88234 18.523 4.78696 18.5625 4.6875 18.5625C4.58804 18.5625 4.49266 18.523 4.42234 18.4527C4.35201 18.3823 4.3125 18.287 4.3125 18.1875V17.625C3.69187 17.625 3.1875 17.1769 3.1875 16.6256C3.1875 16.5262 3.22701 16.4308 3.29734 16.3605C3.36766 16.2901 3.46304 16.2506 3.5625 16.2506C3.66196 16.2506 3.75734 16.2901 3.82766 16.3605C3.89799 16.4308 3.9375 16.5262 3.9375 16.6256C3.9375 16.7437 4.09125 16.875 4.3125 16.875H5.0625C5.28375 16.875 5.4375 16.7437 5.4375 16.6256V15.9994C5.4375 15.8813 5.28375 15.75 5.0625 15.75H4.3125C3.69187 15.75 3.1875 15.3019 3.1875 14.7506V14.1244C3.1875 13.5731 3.69187 13.125 4.3125 13.125V12.5625C4.3125 12.463 4.35201 12.3677 4.42234 12.2973C4.49266 12.227 4.58804 12.1875 4.6875 12.1875C4.78696 12.1875 4.88234 12.227 4.95266 12.2973C5.02299 12.3677 5.0625 12.463 5.0625 12.5625V13.125C5.13796 13.1252 5.21326 13.1321 5.2875 13.1456C5.295 13.1743 5.30419 13.2023 5.31187 13.2308C5.14644 12.6259 5.06257 12.0016 5.0625 11.3745C5.06437 11.1512 5.08355 10.9284 5.11987 10.7081C4.97756 10.695 4.83356 10.6875 4.6875 10.6875C3.4443 10.6875 2.25201 11.1814 1.37294 12.0604C0.49386 12.9395 0 14.1318 0 15.375C0 16.6182 0.49386 17.8105 1.37294 18.6896C2.25201 19.5686 3.4443 20.0625 4.6875 20.0625ZM19.3125 10.6875C19.1664 10.6875 19.0224 10.695 18.8801 10.7081C18.9165 10.9284 18.9356 11.1512 18.9375 11.3745C18.9376 11.9802 18.8596 12.5835 18.7054 13.1693C18.7074 13.1614 18.7104 13.1537 18.7125 13.1456C18.7867 13.1321 18.862 13.1252 18.9375 13.125V12.5625C18.9375 12.463 18.977 12.3677 19.0473 12.2973C19.1177 12.227 19.213 12.1875 19.3125 12.1875C19.412 12.1875 19.5073 12.227 19.5777 12.2973C19.648 12.3677 19.6875 12.463 19.6875 12.5625V13.125C20.3081 13.125 20.8125 13.5731 20.8125 14.1244C20.8125 14.2238 20.773 14.3192 20.7027 14.3895C20.6323 14.4599 20.537 14.4994 20.4375 14.4994C20.338 14.4994 20.2427 14.4599 20.1723 14.3895C20.102 14.3192 20.0625 14.2238 20.0625 14.1244C20.0625 14.0063 19.9088 13.875 19.6875 13.875H18.9375C18.7162 13.875 18.5625 14.0063 18.5625 14.1244V14.7506C18.5625 14.8687 18.7162 15 18.9375 15H19.6875C20.3081 15 20.8125 15.4481 20.8125 15.9994V16.6256C20.8125 17.1769 20.3081 17.625 19.6875 17.625V18.1875C19.6875 18.287 19.648 18.3823 19.5777 18.4527C19.5073 18.523 19.412 18.5625 19.3125 18.5625C19.213 18.5625 19.1177 18.523 19.0473 18.4527C18.977 18.3823 18.9375 18.287 18.9375 18.1875V17.625C18.3169 17.625 17.8125 17.1769 17.8125 16.6256C17.8125 16.5262 17.852 16.4308 17.9223 16.3605C17.9927 16.2901 18.088 16.2506 18.1875 16.2506C18.287 16.2506 18.3823 16.2901 18.4527 16.3605C18.523 16.4308 18.5625 16.5262 18.5625 16.6256C18.5625 16.7437 18.7162 16.875 18.9375 16.875H19.6875C19.9088 16.875 20.0625 16.7437 20.0625 16.6256V15.9994C20.0625 15.8813 19.9088 15.75 19.6875 15.75H18.9375C18.7151 15.7563 18.4957 15.6965 18.3073 15.5782C18.1188 15.4599 17.9696 15.2884 17.8785 15.0853C17.5441 15.6216 17.139 16.1104 16.6742 16.5386C17.0893 17.2347 17.3423 18.0153 17.4144 18.8226L17.415 18.8231C17.4167 18.8438 17.4176 18.8644 17.4191 18.885C17.4302 19.0262 17.4375 19.1685 17.4375 19.3125C17.4375 19.4312 17.4322 19.5484 17.4247 19.6652C18.0631 19.9462 18.7562 20.0812 19.4534 20.0604C20.1506 20.0396 20.8343 19.8634 21.4548 19.5448C22.0752 19.2262 22.6168 18.7731 23.0399 18.2186C23.463 17.6641 23.757 17.0221 23.9006 16.3396C24.0441 15.657 24.0335 14.951 23.8695 14.273C23.7055 13.5951 23.3923 12.9623 22.9527 12.4207C22.5132 11.8792 21.9583 11.4426 21.3285 11.1427C20.6987 10.8429 20.01 10.6874 19.3125 10.6875Z" fill="#333333"/>
</g>
<defs>
<clipPath id="clip0_902_4026">
<rect width="24" height="24" fill="white"/>
</clipPath>
</defs>
</svg>
