<svg width="24" height="24" viewBox="0 0 24 24" fill="none" xmlns="http://www.w3.org/2000/svg">
<path d="M13.502 16.2711C13.4113 16.3556 13.3386 16.4575 13.2881 16.5708C13.2377 16.684 13.2105 16.8062 13.2084 16.9302C13.2062 17.0541 13.229 17.1773 13.2754 17.2922C13.3218 17.4072 13.3909 17.5116 13.4786 17.5992C13.5662 17.6869 13.6707 17.756 13.7856 17.8024C13.9006 17.8489 14.0237 17.8717 14.1476 17.8695C14.2716 17.8673 14.3938 17.8402 14.507 17.7897C14.6203 17.7393 14.7222 17.6665 14.8067 17.5758L19.73 12.6524C19.9029 12.4793 20 12.2446 20 12C20 11.7554 19.9029 11.5207 19.73 11.3477L14.8067 6.4242C14.7222 6.3335 14.6203 6.26076 14.507 6.2103C14.3938 6.15985 14.2716 6.13272 14.1476 6.13053C14.0237 6.12834 13.9006 6.15114 13.7856 6.19757C13.6707 6.244 13.5662 6.31311 13.4786 6.40077C13.3909 6.48843 13.3218 6.59285 13.2754 6.7078C13.229 6.82274 13.2062 6.94586 13.2084 7.06982C13.2105 7.19377 13.2377 7.31601 13.2881 7.42925C13.3386 7.54249 13.4113 7.6444 13.502 7.72891L16.8499 11.0769H4.92312C4.6783 11.0769 4.44349 11.1741 4.27038 11.3472C4.09726 11.5204 4 11.7552 4 12C4 12.2448 4.09726 12.4796 4.27038 12.6528C4.44349 12.8259 4.6783 12.9232 4.92312 12.9232H16.8499L13.502 16.2711Z" fill="#501FA4"/>
</svg>
