<svg width="20" height="20" viewBox="0 0 20 20" fill="none" xmlns="http://www.w3.org/2000/svg">
<g clip-path="url(#clip0_975_723)">
<path d="M17.5 0.833618H2.5C1.83696 0.833618 1.20107 1.09701 0.732233 1.56585C0.263392 2.03469 0 2.67058 0 3.33362L0 19.167H20V3.33362C20 2.67058 19.7366 2.03469 19.2678 1.56585C18.7989 1.09701 18.163 0.833618 17.5 0.833618V0.833618ZM2.5 2.50028H17.5C17.721 2.50028 17.933 2.58808 18.0893 2.74436C18.2455 2.90064 18.3333 3.1126 18.3333 3.33362V3.88945L11.7683 10.4553C11.2987 10.923 10.6628 11.1857 10 11.1857C9.33715 11.1857 8.70131 10.923 8.23167 10.4553L1.66667 3.88945V3.33362C1.66667 3.1126 1.75446 2.90064 1.91074 2.74436C2.06702 2.58808 2.27899 2.50028 2.5 2.50028V2.50028ZM1.66667 17.5003V6.25029L7.05333 11.6336C7.83552 12.4138 8.89521 12.852 10 12.852C11.1048 12.852 12.1645 12.4138 12.9467 11.6336L18.3333 6.25029V17.5003H1.66667Z" fill="#A1B1BC"/>
</g>
<defs>
<clipPath id="clip0_975_723">
<rect width="20" height="20" fill="white"/>
</clipPath>
</defs>
</svg>
