<svg width="20" height="20" viewBox="0 0 20 20" fill="none" xmlns="http://www.w3.org/2000/svg">
<path d="M0.872415 3.16764L3.53493 0.507625C3.85993 0.182623 4.29493 0.00012207 4.75493 0.00012207C5.21493 0.00012207 5.64994 0.180123 5.97494 0.507625L8.84245 3.37014C9.16745 3.69514 9.34995 4.13264 9.34995 4.59265C9.34995 5.05515 9.16995 5.48765 8.84245 5.81515L6.60244 8.05766C7.11273 9.24663 7.84593 10.3269 8.76245 11.2402C9.67995 12.1627 10.7525 12.8902 11.9425 13.4052L14.1825 11.1627C14.5075 10.8377 14.9425 10.6552 15.4025 10.6552C15.6294 10.6543 15.8542 10.6988 16.0636 10.7859C16.2731 10.8731 16.4631 11.0012 16.6225 11.1627L19.4925 14.0252C19.8175 14.3502 20 14.7877 20 15.2477C20 15.7102 19.82 16.1427 19.4925 16.4702L16.8325 19.1302C16.2775 19.6852 15.5125 20.0027 14.7275 20.0027C14.565 20.0027 14.4075 19.9902 14.2475 19.9627C10.9375 19.4177 7.65245 17.6552 4.99993 15.0052C2.34992 12.3502 0.589913 9.06517 0.0399108 5.75265C-0.11759 4.81265 0.197412 3.84514 0.872415 3.16764ZM1.81242 5.45515C2.29992 8.40267 3.88493 11.3427 6.27244 13.7302C8.65995 16.1177 11.5975 17.7027 14.545 18.1902C14.915 18.2527 15.295 18.1277 15.565 17.8602L18.1775 15.2477L15.4075 12.4752L12.4125 15.4752L12.39 15.4977L11.85 15.2977C10.2126 14.6957 8.72579 13.7449 7.49247 12.5111C6.25915 11.2774 5.30885 9.7902 4.70743 8.15267L4.50743 7.61266L7.52744 4.59515L4.75743 1.82263L2.14492 4.43514C1.87492 4.70515 1.74992 5.08515 1.81242 5.45515Z" fill="#A1B1BC"/>
</svg>
