<svg width="16" height="16" viewBox="0 0 16 16" fill="none" xmlns="http://www.w3.org/2000/svg">
<g clip-path="url(#clip0_901_245)">
<path fill-rule="evenodd" clip-rule="evenodd" d="M4.44444 10.6667C3.7372 10.6667 3.05892 10.9476 2.55883 11.4477C2.05873 11.9478 1.77778 12.6261 1.77778 13.3334C1.77778 13.5691 1.87143 13.7952 2.03813 13.9619C2.20483 14.1286 2.43092 14.2222 2.66667 14.2222H13.3333C13.5691 14.2222 13.7952 14.1286 13.9619 13.9619C14.1286 13.7952 14.2222 13.5691 14.2222 13.3334C14.2222 12.6261 13.9413 11.9478 13.4412 11.4477C12.9411 10.9476 12.2628 10.6667 11.5556 10.6667H4.44444ZM1.30175 10.1907C2.13524 9.35717 3.2657 8.88892 4.44444 8.88892H11.5556C12.7343 8.88892 13.8648 9.35717 14.6983 10.1907C15.5317 11.0242 16 12.1546 16 13.3334C16 14.0406 15.719 14.7189 15.219 15.219C14.7189 15.7191 14.0406 16 13.3333 16H2.66667C1.95942 16 1.28115 15.7191 0.781049 15.219C0.280952 14.7189 0 14.0406 0 13.3334C0 12.1546 0.468252 11.0242 1.30175 10.1907Z" fill="white"/>
<path fill-rule="evenodd" clip-rule="evenodd" d="M7.99989 1.77778C7.01805 1.77778 6.22211 2.57372 6.22211 3.55556C6.22211 4.5374 7.01805 5.33333 7.99989 5.33333C8.98173 5.33333 9.77767 4.5374 9.77767 3.55556C9.77767 2.57372 8.98173 1.77778 7.99989 1.77778ZM4.44434 3.55556C4.44434 1.59188 6.03621 0 7.99989 0C9.96357 0 11.5554 1.59188 11.5554 3.55556C11.5554 5.51923 9.96357 7.11111 7.99989 7.11111C6.03621 7.11111 4.44434 5.51923 4.44434 3.55556Z" fill="white"/>
</g>
<defs>
<clipPath id="clip0_901_245">
<rect width="16" height="16" fill="white"/>
</clipPath>
</defs>
</svg>
