<svg width="25" height="25" viewBox="0 0 25 25" fill="none" xmlns="http://www.w3.org/2000/svg">
<g clip-path="url(#clip0_953_708)">
<path d="M8.14062 0.0156054C8.07617 0.0273241 8.00977 0.0390429 7.95312 0.0781054C7.72461 0.232402 7.67383 0.552715 7.82812 0.78123L8.90625 2.39061C7.24023 3.27342 5.99805 4.74021 5.59375 6.49998H19.4062C19.002 4.74021 17.7598 3.27342 16.0938 2.39061L17.1719 0.78123C17.3262 0.552715 17.2754 0.232402 17.0469 0.0781054C16.8164 -0.0761916 16.498 -0.00978526 16.3438 0.21873L15.1562 1.96873C14.332 1.66795 13.4375 1.49998 12.5 1.49998C11.5625 1.49998 10.668 1.66795 9.84375 1.96873L8.65625 0.21873C8.54102 0.0468554 8.33203 -0.021504 8.14062 0.0156054ZM9.75 3.99998C10.1641 3.99998 10.5 4.33592 10.5 4.74998C10.5 5.166 10.1641 5.49998 9.75 5.49998C9.33398 5.49998 9 5.166 9 4.74998C9 4.33592 9.33398 3.99998 9.75 3.99998ZM15.25 3.99998C15.666 3.99998 16 4.33592 16 4.74998C16 5.166 15.666 5.49998 15.25 5.49998C14.8359 5.49998 14.5 5.166 14.5 4.74998C14.5 4.33592 14.8359 3.99998 15.25 3.99998ZM4 7.49998C3.17188 7.49998 2.5 8.17185 2.5 8.99998V16C2.5 16.8281 3.17188 17.5 4 17.5C4.17578 17.5 4.34375 17.4629 4.5 17.4062V7.59373C4.34375 7.53709 4.17578 7.49998 4 7.49998ZM5.5 7.49998V18.5C5.5 19.3262 6.17383 20 7 20H18C18.8262 20 19.5 19.3262 19.5 18.5V7.49998H5.5ZM21 7.49998C20.8242 7.49998 20.6562 7.53709 20.5 7.59373V17.4062C20.6562 17.4609 20.8242 17.5 21 17.5C21.8281 17.5 22.5 16.8281 22.5 16V8.99998C22.5 8.17185 21.8281 7.49998 21 7.49998ZM7.5 21V23C7.5 24.1035 8.39648 25 9.5 25C10.6035 25 11.5 24.1035 11.5 23V21H7.5ZM13.5 21V23C13.5 24.1035 14.3965 25 15.5 25C16.6035 25 17.5 24.1035 17.5 23V21H13.5Z" fill="#36208D" fill-opacity="0.5"/>
</g>
<defs>
<clipPath id="clip0_953_708">
<rect width="25" height="25" fill="white"/>
</clipPath>
</defs>
</svg>
