<svg width="32" height="32" viewBox="0 0 32 32" fill="none" xmlns="http://www.w3.org/2000/svg">
<path fill-rule="evenodd" clip-rule="evenodd" d="M16 0C7.164 0 0 7.164 0 16C0 24.836 7.164 32 16 32C24.836 32 32 24.836 32 16C32 7.164 24.836 0 16 0ZM16 1C24.271 1 31 7.729 31 16C31 24.271 24.271 31 16 31C7.729 31 1 24.271 1 16C1 7.729 7.729 1 16 1ZM10.6667 13.3333H13.3333V11.0773C13.3333 9.056 14.3973 8 16.7947 8H20V11.3333H18.0773C17.4613 11.3333 17.3333 11.5853 17.3333 12.2227V13.3333H20L19.76 16H17.3333V24H13.3333V16H10.6667V13.3333Z" fill="#1E1E1E"/>
</svg>
