<?xml version="1.0" encoding="utf-8"?>
<!-- Generator: Adobe Illustrator 26.0.3, SVG Export Plug-In . SVG Version: 6.00 Build 0)  -->
<svg version="1.1" id="Слой_1" xmlns="http://www.w3.org/2000/svg" xmlns:xlink="http://www.w3.org/1999/xlink" x="0px" y="0px"
	 viewBox="0 0 32 32" style="enable-background:new 0 0 32 32;" xml:space="preserve">
<style type="text/css">
	.st0{fill-rule:evenodd;clip-rule:evenodd;fill:#1E1E1E;}
</style>
<path class="st0" d="M20.3,10.8c-0.5,0-1,0.4-1,1c0,0.5,0.4,1,1,1c0.5,0,1-0.4,1-1C21.2,11.2,20.8,10.8,20.3,10.8z M16,11.9
	c-2.3,0-4.1,1.8-4.1,4.1s1.8,4.1,4.1,4.1s4.1-1.8,4.1-4.1S18.3,11.9,16,11.9z M16,18.7c-1.5,0-2.7-1.2-2.7-2.7s1.2-2.7,2.7-2.7
	s2.7,1.2,2.7,2.7S17.5,18.7,16,18.7z M16,11.9c-2.3,0-4.1,1.8-4.1,4.1s1.8,4.1,4.1,4.1s4.1-1.8,4.1-4.1S18.3,11.9,16,11.9z M16,18.7
	c-1.5,0-2.7-1.2-2.7-2.7s1.2-2.7,2.7-2.7s2.7,1.2,2.7,2.7S17.5,18.7,16,18.7z M20.3,10.8c-0.5,0-1,0.4-1,1c0,0.5,0.4,1,1,1
	c0.5,0,1-0.4,1-1C21.2,11.2,20.8,10.8,20.3,10.8z M20.3,10.8c-0.5,0-1,0.4-1,1c0,0.5,0.4,1,1,1c0.5,0,1-0.4,1-1
	C21.2,11.2,20.8,10.8,20.3,10.8z M16,11.9c-2.3,0-4.1,1.8-4.1,4.1s1.8,4.1,4.1,4.1s4.1-1.8,4.1-4.1S18.3,11.9,16,11.9z M16,18.7
	c-1.5,0-2.7-1.2-2.7-2.7s1.2-2.7,2.7-2.7s2.7,1.2,2.7,2.7S17.5,18.7,16,18.7z M24,12.7c-0.1-2.9-1.7-4.5-4.7-4.7c-0.8,0-1.1,0-3.3,0
	s-2.4,0-3.3,0C9.8,8.2,8.2,9.8,8,12.7c0,0.9,0,1.1,0,3.3s0,2.5,0,3.3c0.1,2.9,1.7,4.5,4.7,4.7c0.9,0,1.1,0,3.3,0s2.5,0,3.3,0
	c2.9-0.1,4.5-1.7,4.7-4.7c0-0.8,0-1.1,0-3.3S24,13.6,24,12.7z M22.5,19.2c-0.1,2.2-1.1,3.2-3.3,3.3c-0.8,0-1.1,0-3.2,0s-2.4,0-3.2,0
	c-2.2-0.1-3.2-1.1-3.3-3.3c0-0.8,0-1.1,0-3.2s0-2.4,0-3.2c0.1-2.2,1.1-3.2,3.3-3.3c0.8,0,1.1,0,3.2,0s2.4,0,3.2,0
	c2.2,0.1,3.2,1.1,3.3,3.3c0,0.8,0,1.1,0,3.2S22.5,18.4,22.5,19.2z M20.3,10.8c-0.5,0-1,0.4-1,1c0,0.5,0.4,1,1,1c0.5,0,1-0.4,1-1
	C21.2,11.2,20.8,10.8,20.3,10.8z M16,11.9c-2.3,0-4.1,1.8-4.1,4.1s1.8,4.1,4.1,4.1s4.1-1.8,4.1-4.1S18.3,11.9,16,11.9z M16,18.7
	c-1.5,0-2.7-1.2-2.7-2.7s1.2-2.7,2.7-2.7s2.7,1.2,2.7,2.7S17.5,18.7,16,18.7z M16,11.9c-2.3,0-4.1,1.8-4.1,4.1s1.8,4.1,4.1,4.1
	s4.1-1.8,4.1-4.1S18.3,11.9,16,11.9z M16,18.7c-1.5,0-2.7-1.2-2.7-2.7s1.2-2.7,2.7-2.7s2.7,1.2,2.7,2.7S17.5,18.7,16,18.7z
	 M20.3,10.8c-0.5,0-1,0.4-1,1c0,0.5,0.4,1,1,1c0.5,0,1-0.4,1-1C21.2,11.2,20.8,10.8,20.3,10.8z M20.3,10.8c-0.5,0-1,0.4-1,1
	c0,0.5,0.4,1,1,1c0.5,0,1-0.4,1-1C21.2,11.2,20.8,10.8,20.3,10.8z M16,11.9c-2.3,0-4.1,1.8-4.1,4.1s1.8,4.1,4.1,4.1s4.1-1.8,4.1-4.1
	S18.3,11.9,16,11.9z M16,18.7c-1.5,0-2.7-1.2-2.7-2.7s1.2-2.7,2.7-2.7s2.7,1.2,2.7,2.7S17.5,18.7,16,18.7z M20.3,10.8
	c-0.5,0-1,0.4-1,1c0,0.5,0.4,1,1,1c0.5,0,1-0.4,1-1C21.2,11.2,20.8,10.8,20.3,10.8z M16,11.9c-2.3,0-4.1,1.8-4.1,4.1
	s1.8,4.1,4.1,4.1s4.1-1.8,4.1-4.1S18.3,11.9,16,11.9z M16,18.7c-1.5,0-2.7-1.2-2.7-2.7s1.2-2.7,2.7-2.7s2.7,1.2,2.7,2.7
	S17.5,18.7,16,18.7z M16,11.9c-2.3,0-4.1,1.8-4.1,4.1s1.8,4.1,4.1,4.1s4.1-1.8,4.1-4.1S18.3,11.9,16,11.9z M16,18.7
	c-1.5,0-2.7-1.2-2.7-2.7s1.2-2.7,2.7-2.7s2.7,1.2,2.7,2.7S17.5,18.7,16,18.7z M20.3,10.8c-0.5,0-1,0.4-1,1c0,0.5,0.4,1,1,1
	c0.5,0,1-0.4,1-1C21.2,11.2,20.8,10.8,20.3,10.8z M20.3,10.8c-0.5,0-1,0.4-1,1c0,0.5,0.4,1,1,1c0.5,0,1-0.4,1-1
	C21.2,11.2,20.8,10.8,20.3,10.8z M16,11.9c-2.3,0-4.1,1.8-4.1,4.1s1.8,4.1,4.1,4.1s4.1-1.8,4.1-4.1S18.3,11.9,16,11.9z M16,18.7
	c-1.5,0-2.7-1.2-2.7-2.7s1.2-2.7,2.7-2.7s2.7,1.2,2.7,2.7S17.5,18.7,16,18.7z M24,12.7c-0.1-2.9-1.7-4.5-4.7-4.7c-0.8,0-1.1,0-3.3,0
	s-2.4,0-3.3,0C9.8,8.2,8.2,9.8,8,12.7c0,0.9,0,1.1,0,3.3s0,2.5,0,3.3c0.1,2.9,1.7,4.5,4.7,4.7c0.9,0,1.1,0,3.3,0s2.5,0,3.3,0
	c2.9-0.1,4.5-1.7,4.7-4.7c0-0.8,0-1.1,0-3.3S24,13.6,24,12.7z M22.5,19.2c-0.1,2.2-1.1,3.2-3.3,3.3c-0.8,0-1.1,0-3.2,0s-2.4,0-3.2,0
	c-2.2-0.1-3.2-1.1-3.3-3.3c0-0.8,0-1.1,0-3.2s0-2.4,0-3.2c0.1-2.2,1.1-3.2,3.3-3.3c0.8,0,1.1,0,3.2,0s2.4,0,3.2,0
	c2.2,0.1,3.2,1.1,3.3,3.3c0,0.8,0,1.1,0,3.2S22.5,18.4,22.5,19.2z M20.3,10.8c-0.5,0-1,0.4-1,1c0,0.5,0.4,1,1,1c0.5,0,1-0.4,1-1
	C21.2,11.2,20.8,10.8,20.3,10.8z M16,11.9c-2.3,0-4.1,1.8-4.1,4.1s1.8,4.1,4.1,4.1s4.1-1.8,4.1-4.1S18.3,11.9,16,11.9z M16,18.7
	c-1.5,0-2.7-1.2-2.7-2.7s1.2-2.7,2.7-2.7s2.7,1.2,2.7,2.7S17.5,18.7,16,18.7z M16,11.9c-2.3,0-4.1,1.8-4.1,4.1s1.8,4.1,4.1,4.1
	s4.1-1.8,4.1-4.1S18.3,11.9,16,11.9z M16,18.7c-1.5,0-2.7-1.2-2.7-2.7s1.2-2.7,2.7-2.7s2.7,1.2,2.7,2.7S17.5,18.7,16,18.7z
	 M20.3,10.8c-0.5,0-1,0.4-1,1c0,0.5,0.4,1,1,1c0.5,0,1-0.4,1-1C21.2,11.2,20.8,10.8,20.3,10.8z M20.3,10.8c-0.5,0-1,0.4-1,1
	c0,0.5,0.4,1,1,1c0.5,0,1-0.4,1-1C21.2,11.2,20.8,10.8,20.3,10.8z M16,11.9c-2.3,0-4.1,1.8-4.1,4.1s1.8,4.1,4.1,4.1s4.1-1.8,4.1-4.1
	S18.3,11.9,16,11.9z M16,18.7c-1.5,0-2.7-1.2-2.7-2.7s1.2-2.7,2.7-2.7s2.7,1.2,2.7,2.7S17.5,18.7,16,18.7z M16,11.9
	c-2.3,0-4.1,1.8-4.1,4.1s1.8,4.1,4.1,4.1s4.1-1.8,4.1-4.1S18.3,11.9,16,11.9z M16,18.7c-1.5,0-2.7-1.2-2.7-2.7s1.2-2.7,2.7-2.7
	s2.7,1.2,2.7,2.7S17.5,18.7,16,18.7z M20.3,10.8c-0.5,0-1,0.4-1,1c0,0.5,0.4,1,1,1c0.5,0,1-0.4,1-1C21.2,11.2,20.8,10.8,20.3,10.8z
	 M20.3,10.8c-0.5,0-1,0.4-1,1c0,0.5,0.4,1,1,1c0.5,0,1-0.4,1-1C21.2,11.2,20.8,10.8,20.3,10.8z M16,11.9c-2.3,0-4.1,1.8-4.1,4.1
	s1.8,4.1,4.1,4.1s4.1-1.8,4.1-4.1S18.3,11.9,16,11.9z M16,18.7c-1.5,0-2.7-1.2-2.7-2.7s1.2-2.7,2.7-2.7s2.7,1.2,2.7,2.7
	S17.5,18.7,16,18.7z M24,12.7c-0.1-2.9-1.7-4.5-4.7-4.7c-0.8,0-1.1,0-3.3,0s-2.4,0-3.3,0C9.8,8.2,8.2,9.8,8,12.7c0,0.9,0,1.1,0,3.3
	s0,2.5,0,3.3c0.1,2.9,1.7,4.5,4.7,4.7c0.9,0,1.1,0,3.3,0s2.5,0,3.3,0c2.9-0.1,4.5-1.7,4.7-4.7c0-0.8,0-1.1,0-3.3S24,13.6,24,12.7z
	 M22.5,19.2c-0.1,2.2-1.1,3.2-3.3,3.3c-0.8,0-1.1,0-3.2,0s-2.4,0-3.2,0c-2.2-0.1-3.2-1.1-3.3-3.3c0-0.8,0-1.1,0-3.2s0-2.4,0-3.2
	c0.1-2.2,1.1-3.2,3.3-3.3c0.8,0,1.1,0,3.2,0s2.4,0,3.2,0c2.2,0.1,3.2,1.1,3.3,3.3c0,0.8,0,1.1,0,3.2S22.5,18.4,22.5,19.2z
	 M20.3,10.8c-0.5,0-1,0.4-1,1c0,0.5,0.4,1,1,1c0.5,0,1-0.4,1-1C21.2,11.2,20.8,10.8,20.3,10.8z M16,11.9c-2.3,0-4.1,1.8-4.1,4.1
	s1.8,4.1,4.1,4.1s4.1-1.8,4.1-4.1S18.3,11.9,16,11.9z M16,18.7c-1.5,0-2.7-1.2-2.7-2.7s1.2-2.7,2.7-2.7s2.7,1.2,2.7,2.7
	S17.5,18.7,16,18.7z M24,12.7c-0.1-2.9-1.7-4.5-4.7-4.7c-0.8,0-1.1,0-3.3,0s-2.4,0-3.3,0C9.8,8.2,8.2,9.8,8,12.7c0,0.9,0,1.1,0,3.3
	s0,2.5,0,3.3c0.1,2.9,1.7,4.5,4.7,4.7c0.9,0,1.1,0,3.3,0s2.5,0,3.3,0c2.9-0.1,4.5-1.7,4.7-4.7c0-0.8,0-1.1,0-3.3S24,13.6,24,12.7z
	 M22.5,19.2c-0.1,2.2-1.1,3.2-3.3,3.3c-0.8,0-1.1,0-3.2,0s-2.4,0-3.2,0c-2.2-0.1-3.2-1.1-3.3-3.3c0-0.8,0-1.1,0-3.2s0-2.4,0-3.2
	c0.1-2.2,1.1-3.2,3.3-3.3c0.8,0,1.1,0,3.2,0s2.4,0,3.2,0c2.2,0.1,3.2,1.1,3.3,3.3c0,0.8,0,1.1,0,3.2S22.5,18.4,22.5,19.2z
	 M20.3,10.8c-0.5,0-1,0.4-1,1c0,0.5,0.4,1,1,1c0.5,0,1-0.4,1-1C21.2,11.2,20.8,10.8,20.3,10.8z M16,11.9c-2.3,0-4.1,1.8-4.1,4.1
	s1.8,4.1,4.1,4.1s4.1-1.8,4.1-4.1S18.3,11.9,16,11.9z M16,18.7c-1.5,0-2.7-1.2-2.7-2.7s1.2-2.7,2.7-2.7s2.7,1.2,2.7,2.7
	S17.5,18.7,16,18.7z M16,0C7.2,0,0,7.2,0,16s7.2,16,16,16s16-7.2,16-16S24.8,0,16,0z M16,31C7.7,31,1,24.3,1,16S7.7,1,16,1
	s15,6.7,15,15S24.3,31,16,31z M19.3,8c-0.8,0-1.1,0-3.3,0s-2.4,0-3.3,0C9.8,8.2,8.2,9.8,8,12.7c0,0.9,0,1.1,0,3.3s0,2.5,0,3.3
	c0.1,2.9,1.7,4.5,4.7,4.7c0.9,0,1.1,0,3.3,0s2.5,0,3.3,0c2.9-0.1,4.5-1.7,4.7-4.7c0-0.8,0-1.1,0-3.3s0-2.4,0-3.3
	C23.8,9.8,22.2,8.2,19.3,8z M22.5,19.2c-0.1,2.2-1.1,3.2-3.3,3.3c-0.8,0-1.1,0-3.2,0s-2.4,0-3.2,0c-2.2-0.1-3.2-1.1-3.3-3.3
	c0-0.8,0-1.1,0-3.2s0-2.4,0-3.2c0.1-2.2,1.1-3.2,3.3-3.3c0.8,0,1.1,0,3.2,0s2.4,0,3.2,0c2.2,0.1,3.2,1.1,3.3,3.3c0,0.8,0,1.1,0,3.2
	S22.5,18.4,22.5,19.2z M20.3,10.8c-0.5,0-1,0.4-1,1c0,0.5,0.4,1,1,1c0.5,0,1-0.4,1-1C21.2,11.2,20.8,10.8,20.3,10.8z M16,11.9
	c-2.3,0-4.1,1.8-4.1,4.1s1.8,4.1,4.1,4.1s4.1-1.8,4.1-4.1S18.3,11.9,16,11.9z M16,18.7c-1.5,0-2.7-1.2-2.7-2.7s1.2-2.7,2.7-2.7
	s2.7,1.2,2.7,2.7S17.5,18.7,16,18.7z M16,11.9c-2.3,0-4.1,1.8-4.1,4.1s1.8,4.1,4.1,4.1s4.1-1.8,4.1-4.1S18.3,11.9,16,11.9z M16,18.7
	c-1.5,0-2.7-1.2-2.7-2.7s1.2-2.7,2.7-2.7s2.7,1.2,2.7,2.7S17.5,18.7,16,18.7z M20.3,10.8c-0.5,0-1,0.4-1,1c0,0.5,0.4,1,1,1
	c0.5,0,1-0.4,1-1C21.2,11.2,20.8,10.8,20.3,10.8z M20.3,10.8c-0.5,0-1,0.4-1,1c0,0.5,0.4,1,1,1c0.5,0,1-0.4,1-1
	C21.2,11.2,20.8,10.8,20.3,10.8z M16,11.9c-2.3,0-4.1,1.8-4.1,4.1s1.8,4.1,4.1,4.1s4.1-1.8,4.1-4.1S18.3,11.9,16,11.9z M16,18.7
	c-1.5,0-2.7-1.2-2.7-2.7s1.2-2.7,2.7-2.7s2.7,1.2,2.7,2.7S17.5,18.7,16,18.7z M24,12.7c-0.1-2.9-1.7-4.5-4.7-4.7c-0.8,0-1.1,0-3.3,0
	s-2.4,0-3.3,0C9.8,8.2,8.2,9.8,8,12.7c0,0.9,0,1.1,0,3.3s0,2.5,0,3.3c0.1,2.9,1.7,4.5,4.7,4.7c0.9,0,1.1,0,3.3,0s2.5,0,3.3,0
	c2.9-0.1,4.5-1.7,4.7-4.7c0-0.8,0-1.1,0-3.3S24,13.6,24,12.7z M22.5,19.2c-0.1,2.2-1.1,3.2-3.3,3.3c-0.8,0-1.1,0-3.2,0s-2.4,0-3.2,0
	c-2.2-0.1-3.2-1.1-3.3-3.3c0-0.8,0-1.1,0-3.2s0-2.4,0-3.2c0.1-2.2,1.1-3.2,3.3-3.3c0.8,0,1.1,0,3.2,0s2.4,0,3.2,0
	c2.2,0.1,3.2,1.1,3.3,3.3c0,0.8,0,1.1,0,3.2S22.5,18.4,22.5,19.2z M20.3,10.8c-0.5,0-1,0.4-1,1c0,0.5,0.4,1,1,1c0.5,0,1-0.4,1-1
	C21.2,11.2,20.8,10.8,20.3,10.8z M16,11.9c-2.3,0-4.1,1.8-4.1,4.1s1.8,4.1,4.1,4.1s4.1-1.8,4.1-4.1S18.3,11.9,16,11.9z M16,18.7
	c-1.5,0-2.7-1.2-2.7-2.7s1.2-2.7,2.7-2.7s2.7,1.2,2.7,2.7S17.5,18.7,16,18.7z M16,11.9c-2.3,0-4.1,1.8-4.1,4.1s1.8,4.1,4.1,4.1
	s4.1-1.8,4.1-4.1S18.3,11.9,16,11.9z M16,18.7c-1.5,0-2.7-1.2-2.7-2.7s1.2-2.7,2.7-2.7s2.7,1.2,2.7,2.7S17.5,18.7,16,18.7z
	 M20.3,10.8c-0.5,0-1,0.4-1,1c0,0.5,0.4,1,1,1c0.5,0,1-0.4,1-1C21.2,11.2,20.8,10.8,20.3,10.8z M20.3,10.8c-0.5,0-1,0.4-1,1
	c0,0.5,0.4,1,1,1c0.5,0,1-0.4,1-1C21.2,11.2,20.8,10.8,20.3,10.8z M16,11.9c-2.3,0-4.1,1.8-4.1,4.1s1.8,4.1,4.1,4.1s4.1-1.8,4.1-4.1
	S18.3,11.9,16,11.9z M16,18.7c-1.5,0-2.7-1.2-2.7-2.7s1.2-2.7,2.7-2.7s2.7,1.2,2.7,2.7S17.5,18.7,16,18.7z M24,12.7
	c-0.1-2.9-1.7-4.5-4.7-4.7c-0.8,0-1.1,0-3.3,0s-2.4,0-3.3,0C9.8,8.2,8.2,9.8,8,12.7c0,0.9,0,1.1,0,3.3s0,2.5,0,3.3
	c0.1,2.9,1.7,4.5,4.7,4.7c0.9,0,1.1,0,3.3,0s2.5,0,3.3,0c2.9-0.1,4.5-1.7,4.7-4.7c0-0.8,0-1.1,0-3.3S24,13.6,24,12.7z M22.5,19.2
	c-0.1,2.2-1.1,3.2-3.3,3.3c-0.8,0-1.1,0-3.2,0s-2.4,0-3.2,0c-2.2-0.1-3.2-1.1-3.3-3.3c0-0.8,0-1.1,0-3.2s0-2.4,0-3.2
	c0.1-2.2,1.1-3.2,3.3-3.3c0.8,0,1.1,0,3.2,0s2.4,0,3.2,0c2.2,0.1,3.2,1.1,3.3,3.3c0,0.8,0,1.1,0,3.2S22.5,18.4,22.5,19.2z
	 M20.3,10.8c-0.5,0-1,0.4-1,1c0,0.5,0.4,1,1,1c0.5,0,1-0.4,1-1C21.2,11.2,20.8,10.8,20.3,10.8z M16,11.9c-2.3,0-4.1,1.8-4.1,4.1
	s1.8,4.1,4.1,4.1s4.1-1.8,4.1-4.1S18.3,11.9,16,11.9z M16,18.7c-1.5,0-2.7-1.2-2.7-2.7s1.2-2.7,2.7-2.7s2.7,1.2,2.7,2.7
	S17.5,18.7,16,18.7z M16,11.9c-2.3,0-4.1,1.8-4.1,4.1s1.8,4.1,4.1,4.1s4.1-1.8,4.1-4.1S18.3,11.9,16,11.9z M16,18.7
	c-1.5,0-2.7-1.2-2.7-2.7s1.2-2.7,2.7-2.7s2.7,1.2,2.7,2.7S17.5,18.7,16,18.7z M20.3,10.8c-0.5,0-1,0.4-1,1c0,0.5,0.4,1,1,1
	c0.5,0,1-0.4,1-1C21.2,11.2,20.8,10.8,20.3,10.8z M20.3,10.8c-0.5,0-1,0.4-1,1c0,0.5,0.4,1,1,1c0.5,0,1-0.4,1-1
	C21.2,11.2,20.8,10.8,20.3,10.8z M16,11.9c-2.3,0-4.1,1.8-4.1,4.1s1.8,4.1,4.1,4.1s4.1-1.8,4.1-4.1S18.3,11.9,16,11.9z M16,18.7
	c-1.5,0-2.7-1.2-2.7-2.7s1.2-2.7,2.7-2.7s2.7,1.2,2.7,2.7S17.5,18.7,16,18.7z"/>
</svg>
