<svg width="25" height="25" viewBox="0 0 25 25" fill="none" xmlns="http://www.w3.org/2000/svg">
<path d="M22.2637 18.375C21.7246 19.5723 21.4648 20.1074 20.7715 21.1641C19.8008 22.6406 18.4316 24.4844 16.7402 24.4961C15.2344 24.5098 14.8457 23.5137 12.8008 23.5312C10.7578 23.541 10.332 24.5156 8.82421 24.5C7.13085 24.4844 5.83593 22.8242 4.86522 21.3496C2.15038 17.2148 1.86327 12.3672 3.54101 9.78906C4.72851 7.96094 6.60546 6.88672 8.36913 6.88672C10.166 6.88672 11.2949 7.87305 12.7793 7.87305C14.2207 7.87305 15.0976 6.88477 17.1758 6.88477C18.7461 6.88477 20.4062 7.74023 21.5937 9.2168C17.7109 11.3457 18.3418 16.8906 22.2637 18.375ZM15.5976 5.23438C16.3535 4.26367 16.9277 2.89453 16.7187 1.5C15.4863 1.58398 14.0449 2.37109 13.2031 3.39062C12.4394 4.32031 11.8066 5.69922 12.0527 7.0332C13.3984 7.07617 14.791 6.27344 15.5976 5.23438Z" fill="#36208D" fill-opacity="0.5"/>
</svg>
