<svg width="78" height="27" viewBox="0 0 78 27" fill="none" xmlns="http://www.w3.org/2000/svg">
<path d="M42.959 13.25H45.8676L41.8413 18.1369L46.6297 23.6507H43.3781L39.0596 18.6103V23.6507H36.4558V13.25H39.0596V18.0474L42.959 13.25Z" fill="#110945" fill-opacity="0.2"/>
<path d="M53.5639 23.6507H50.8691L55.4117 13.25H58.1577L62.7387 23.6507H60.0568L56.7975 15.8055L55.771 18.297L53.5639 23.6507Z" fill="#110945" fill-opacity="0.2"/>
<path d="M75.5464 13.25H77.9988V23.6507H75.7892L70.2652 17.1902V23.6507H67.825V13.25H69.9981L75.5464 19.736V13.25Z" fill="#110945" fill-opacity="0.2"/>
<path d="M20.5059 26.25H19.4811H8.02225H7.34941H0L13.819 0.25L27.7104 26.25H20.5059ZM10.8481 20.1759H16.6552L13.7569 13.922L10.8481 20.1759Z" fill="#110945" fill-opacity="0.2"/>
<path d="M41.7601 8.25039L41.7521 4.89039L40.1041 7.65839H39.5201L37.8801 4.96239V8.25039H36.6641V2.65039H37.7361L39.8321 6.13039L41.8961 2.65039H42.9601L42.9761 8.25039H41.7601Z" fill="#110945" fill-opacity="0.2"/>
<path d="M48.3927 7.05039H45.7927L45.2967 8.25039H43.9687L46.4647 2.65039H47.7447L50.2487 8.25039H48.8887L48.3927 7.05039ZM47.9847 6.06639L47.0967 3.92239L46.2087 6.06639H47.9847Z" fill="#110945" fill-opacity="0.2"/>
<path d="M51.2297 2.65039H53.7737C54.3817 2.65039 54.9177 2.76772 55.3817 3.00239C55.851 3.23172 56.2137 3.55706 56.4697 3.97839C56.731 4.39972 56.8617 4.89039 56.8617 5.45039C56.8617 6.01039 56.731 6.50106 56.4697 6.92239C56.2137 7.34372 55.851 7.67172 55.3817 7.90639C54.9177 8.13572 54.3817 8.25039 53.7737 8.25039H51.2297V2.65039ZM53.7097 7.18639C54.2697 7.18639 54.715 7.03172 55.0457 6.72239C55.3817 6.40772 55.5497 5.98372 55.5497 5.45039C55.5497 4.91706 55.3817 4.49572 55.0457 4.18639C54.715 3.87172 54.2697 3.71439 53.7097 3.71439H52.5257V7.18639H53.7097Z" fill="#110945" fill-opacity="0.2"/>
<path d="M62.5751 7.21039V8.25039H58.2391V2.65039H62.4711V3.69039H59.5271V4.90639H62.1271V5.91439H59.5271V7.21039H62.5751Z" fill="#110945" fill-opacity="0.2"/>
<path d="M70.7839 5.33839C71.1039 5.43972 71.3545 5.61039 71.5359 5.85039C71.7172 6.08506 71.8079 6.37572 71.8079 6.72239C71.8079 7.21306 71.6159 7.59172 71.2319 7.85839C70.8532 8.11972 70.2985 8.25039 69.5679 8.25039H66.6719V2.65039H69.4079C70.0905 2.65039 70.6132 2.78106 70.9759 3.04239C71.3439 3.30372 71.5279 3.65839 71.5279 4.10639C71.5279 4.37839 71.4612 4.62106 71.3279 4.83439C71.1999 5.04772 71.0185 5.21572 70.7839 5.33839ZM67.9599 3.62639V4.94639H69.2479C69.5679 4.94639 69.8105 4.89039 69.9759 4.77839C70.1412 4.66639 70.2239 4.50106 70.2239 4.28239C70.2239 4.06372 70.1412 3.90106 69.9759 3.79439C69.8105 3.68239 69.5679 3.62639 69.2479 3.62639H67.9599ZM69.4719 7.27439C69.8132 7.27439 70.0692 7.21839 70.2399 7.10639C70.4159 6.99439 70.5039 6.82106 70.5039 6.58639C70.5039 6.12239 70.1599 5.89039 69.4719 5.89039H67.9599V7.27439H69.4719Z" fill="#110945" fill-opacity="0.2"/>
<path d="M75.7599 6.26639V8.25039H74.4639V6.25039L72.2959 2.65039H73.6719L75.1679 5.13839L76.6639 2.65039H77.9359L75.7599 6.26639Z" fill="#110945" fill-opacity="0.2"/>
</svg>
