<svg width="24" height="24" viewBox="0 0 24 24" fill="none" xmlns="http://www.w3.org/2000/svg">
<path d="M9.855 11.823C8.83063 11.2964 7.83375 11.0297 6.89325 11.0297C6.76538 11.0297 6.63613 11.0338 6.50825 11.0448C5.27804 11.1608 4.07185 11.4588 2.92912 11.9289L1 18.6197C2.3255 18.1288 3.49837 17.8909 4.57225 17.8909C6.30888 17.8909 7.56975 18.5399 8.61062 19.2082C9.10425 17.5348 10.2867 13.4909 10.6401 12.2837C10.3826 12.1241 10.1208 11.9714 9.855 11.8258V11.823ZM12.3492 13.5225L10.4064 20.2724C10.9825 20.6024 12.9226 21.6488 14.4076 21.6488C15.6066 21.6488 16.9486 21.3422 18.5079 20.7083L20.3627 14.221C19.1033 14.628 17.8946 14.8343 16.7644 14.8343C14.7032 14.8343 13.2595 14.166 12.3492 13.5253V13.5225ZM7.28925 8.74717C8.94613 8.76367 10.1712 9.39617 11.1874 10.0465L13.1797 3.2293C12.7604 2.98867 11.659 2.38917 10.8629 2.18567C10.3191 2.06027 9.76267 1.99799 9.20463 2.00005C8.09225 2.02067 6.87537 2.2998 5.49075 2.8553L3.5905 9.52817C4.98337 9.00292 6.18375 8.74717 7.28925 8.74717ZM22.9986 5.08142C21.735 5.5723 20.5016 5.82255 19.3246 5.82255C17.3542 5.82255 15.9022 5.13917 14.9617 4.4833L12.9859 11.3198C14.3127 12.1723 15.7427 12.6068 17.2429 12.6068C18.4666 12.6068 19.7344 12.3125 21.0131 11.7323L21.009 11.6842L21.0887 11.6649L22.9986 5.08142Z" fill="white"/>
</svg>
