<svg width="190" height="84" viewBox="0 0 190 84" fill="none" xmlns="http://www.w3.org/2000/svg">
<path fill-rule="evenodd" clip-rule="evenodd" d="M49.1806 36.252L51.9463 47.6432H51.9896L54.7121 36.252H59.3337V50.7077H56.3579V38.6216H56.3363L53.4677 50.7077H50.321L47.5347 38.6216H47.4926V50.7077H44.5179V36.252H49.1806ZM69.0184 48.5392C70.7498 48.5392 73.1768 47.5227 73.1768 43.4813C73.1768 39.438 70.7498 38.4224 69.0184 38.4224C67.2871 38.4224 64.86 39.438 64.86 43.4813C64.86 47.5227 67.2871 48.5392 69.0184 48.5392ZM69.0184 35.8729C71.0451 35.8729 76.3646 36.7089 76.3646 43.4813C76.3646 50.2509 71.0451 51.0877 69.0184 51.0877C66.9928 51.0877 61.6733 50.2518 61.6733 43.4813C61.6733 36.7079 66.9928 35.8729 69.0184 35.8729ZM88.5845 40.9902C88.3303 40.1155 87.8228 38.4224 85.1847 38.4224C83.6449 38.4224 81.3217 39.4584 81.3217 43.5406C81.3217 46.1288 82.4849 48.5392 85.1847 48.5392C86.9582 48.5392 88.2047 47.5227 88.5845 45.7508H91.7713C91.1361 48.896 88.9623 51.0877 85.1219 51.0877C81.048 51.0877 78.1361 48.4771 78.1361 43.5008C78.1361 38.4447 81.2177 35.8729 85.1641 35.8729C89.7446 35.8729 91.6024 38.8607 91.7713 40.9902H88.5845ZM100.74 48.5392C102.472 48.5392 104.899 47.5227 104.899 43.4813C104.899 39.438 102.472 38.4224 100.74 38.4224C99.0094 38.4224 96.5822 39.438 96.5822 43.4813C96.5822 47.5227 99.0094 48.5392 100.74 48.5392ZM100.74 35.8729C102.767 35.8729 108.085 36.7089 108.085 43.4813C108.085 50.2509 102.767 51.0877 100.74 51.0877C98.715 51.0877 93.3944 50.2518 93.3944 43.4813C93.3944 36.7079 98.715 35.8729 100.74 35.8729ZM113.573 48.2185H117.182C118.726 48.2185 119.61 47.3244 119.61 46.1288C119.61 44.8537 118.62 44.2151 117.182 44.2151H113.572V48.2195L113.573 48.2185ZM121.657 36.252V38.7402H113.573V41.727H117.563C120.518 41.727 122.797 43.421 122.797 46.2873C122.797 49.1361 120.581 50.7077 117.52 50.7077H110.386V36.252H121.657ZM149.701 36.252V38.7402H143.018V50.7077H139.831V36.252H149.702H149.701ZM156.736 39.5167H156.78L158.869 45.2337H154.773L156.736 39.5167ZM154.944 36.252L149.496 50.7086H152.852L153.929 47.7219H159.565L160.557 50.7086H164.017L158.636 36.252H154.944ZM132.604 36.252H128.909L123.464 50.7086H126.82L130.704 39.5197H130.746L134.523 50.7086H137.985L132.603 36.252H132.604ZM164.611 40.5519C164.779 38.1638 166.657 35.8729 170.583 35.8729C174.827 35.8729 176.431 38.0841 176.431 39.6956C176.431 41.5287 175.353 42.6241 173.792 43.0429C175.459 43.321 177 44.5941 177 46.8462C177 49.0758 175.1 51.0877 170.795 51.0877C165.562 51.0877 164.379 48.5976 164.379 46.2474H167.375C167.375 47.5227 167.967 48.5976 170.689 48.5976C172.609 48.5976 173.813 47.8006 173.813 46.5254C173.813 45.0724 172.546 44.3375 171.005 44.3375H169.529V41.9077H170.921C172.442 41.9077 173.369 41.2099 173.369 40.0358C173.369 38.9404 172.336 38.3641 170.647 38.3641C168.516 38.3641 167.735 39.1786 167.607 40.5519H164.611ZM19.7918 54.3291H19.8269L21.4613 49.6512H18.2581L19.7918 54.3291ZM18.392 57L14.1307 45.1715H16.7554L17.5963 47.616H22.0039L22.7799 45.1715H25.485L21.2772 57H18.392ZM27.6166 38.155C27.6166 32.2884 21.4655 26.4626 17.9185 26C18.1429 26.6191 18.2983 27.4054 18.2983 28.422C18.2973 31.6081 12 33.6472 12 38.8062C12 40.3808 12.5991 43.0809 14.4662 44.4105C15.0766 42.3548 17.2351 40.8357 19.8052 40.8357C22.3744 40.8357 24.5328 42.3548 25.1432 44.4105C25.7783 43.9585 27.6166 42.0807 27.6166 38.155Z" fill="#AAB0B6"/>
<path fill-rule="evenodd" clip-rule="evenodd" d="M19.9875 38.8568C21.9325 38.8568 23.5408 40.0164 23.9039 40.3523C24.7245 39.597 25.2235 38.6021 25.2235 37.5127C25.2235 36.3184 24.6236 35.238 23.6577 34.4622C23.2726 34.1533 22.8425 33.8983 22.3805 33.7051C22.3805 33.7051 20.5242 32.8375 19.9648 32.1152C19.4866 32.7609 18.7443 33.2018 17.7322 33.6151C17.7322 33.6151 16.7031 34.146 16.2843 34.488C15.3373 35.2629 14.7515 36.3317 14.7515 37.5127C14.7515 38.6118 15.2599 39.6148 16.0919 40.3718C16.3843 40.0992 18.0416 38.8577 19.9875 38.8577" fill="#767E84"/>
</svg>
