<svg width="190" height="84" viewBox="0 0 190 84" fill="none" xmlns="http://www.w3.org/2000/svg">
<path fill-rule="evenodd" clip-rule="evenodd" d="M48.6699 27.0108V33.735H56.1949C64.3634 33.735 66.2769 33.2688 66.8494 31.14C67.3554 29.2582 67.2284 28.7671 65.8899 27.4337C64.7199 26.2682 64.6769 26.0854 65.3899 25.3004C66.2234 24.3829 66.3939 22.9026 65.7769 21.9368C64.9939 20.7095 62.3939 20.2866 55.6374 20.2866H48.6699V27.0108ZM68.1699 27.0108V33.735H74.5894H81.0094L81.6984 32.3653C82.0779 31.6117 82.4669 30.8361 82.5639 30.6409C82.6609 30.4461 80.6434 30.222 78.0804 30.1428L73.4199 29.9993L73.2769 25.143L73.1339 20.2866H70.6519H68.1699V27.0108ZM85.9234 26.7548C84.1339 30.3121 82.6699 33.338 82.6699 33.479C82.6699 33.6199 85.5949 33.735 89.1699 33.735C92.7449 33.735 95.6699 33.612 95.6699 33.4611C95.6699 33.3106 95.3264 32.5261 94.9069 31.7177C94.2179 30.3898 93.9049 30.2484 91.6619 30.2484H89.1794L90.7919 26.9904L92.4049 23.7324L94.9014 28.7337L97.3974 33.735H100.034C101.483 33.735 102.67 33.5906 102.67 33.4137C102.67 33.2374 101.156 30.2115 99.3059 26.6895L95.9419 20.2866H92.5594H89.1769L85.9234 26.7548ZM106.336 20.833C105.465 21.0846 104.172 21.9781 103.461 22.8189C102.414 24.0591 102.17 24.8675 102.17 27.099C102.17 29.5446 102.352 30.0317 103.812 31.4856C108.376 36.0327 121.67 34.2874 121.67 29.1411C121.67 27.7983 117.044 27.8835 115.67 29.2522C114.499 30.4182 109.913 30.6578 108.522 29.6258C107.317 28.7312 106.95 26.2263 107.848 25.0185C108.871 23.6432 114.904 23.5501 115.89 24.8939C116.356 25.5285 117.229 25.7656 119.1 25.7656C121.822 25.7656 122.009 25.5579 121.093 23.5551C120.112 21.4108 116.971 20.2801 112.137 20.3314C109.817 20.3564 107.207 20.582 106.336 20.833ZM123.17 27.0108V33.735H125.67H128.17V30.9955C128.17 29.4888 128.318 28.256 128.5 28.256C128.681 28.256 130.127 29.4888 131.712 30.9955L134.596 33.735H137.963H141.33L137.407 30.096L133.483 26.4564L137.077 23.5645C139.053 21.9741 140.67 20.5855 140.67 20.4794C140.67 20.3733 139.373 20.2866 137.788 20.2866C135.074 20.2866 134.724 20.4326 131.816 22.7771C130.116 24.1468 128.601 25.2675 128.448 25.2675C128.295 25.2675 128.17 24.1468 128.17 22.7771V20.2866H125.67H123.17V27.0108ZM60.9199 24.2713C60.9199 24.8531 60.1184 25.0508 57.2949 25.1649C53.9054 25.3019 53.6699 25.2436 53.6699 24.2713C53.6699 23.2991 53.9054 23.2408 57.2949 23.3778C60.1184 23.4918 60.9199 23.6896 60.9199 24.2713ZM61.4199 29.5013C61.4199 30.3993 61.0379 30.5119 57.5449 30.6429C53.6734 30.7883 53.6699 30.7873 53.6699 29.5013C53.6699 28.2152 53.6734 28.2142 57.5449 28.3596C61.0379 28.4906 61.4199 28.6032 61.4199 29.5013ZM63.4199 39.5173C59.5019 40.4995 58.0209 42.46 59.2554 45.0292C60.1074 46.8019 62.3959 47.6142 66.6699 47.6611C70.2689 47.7004 71.4704 48.1751 71.0084 49.3745C70.5169 50.6501 65.3789 50.4917 64.5539 49.1757C64.0579 48.3848 63.3879 48.1796 61.2994 48.1796C59.0034 48.1796 58.6699 48.3061 58.6699 49.1757C58.6699 50.3677 60.2274 52.0213 61.9724 52.6823C62.6669 52.9453 65.2409 53.1604 67.6924 53.1604C73.4114 53.1604 75.8959 52.2599 76.6764 49.903C77.8224 46.4442 75.7209 44.8802 69.2794 44.3971C64.4484 44.0355 63.6729 43.7316 64.9294 42.6926C65.8284 41.9495 70.1174 42.3086 70.6529 43.1718C70.8774 43.5329 72.0724 43.6943 73.8274 43.5996L76.6419 43.4477L76.0164 42.2025C75.6724 41.5176 74.7484 40.6505 73.9629 40.2754C72.5119 39.5826 65.2439 39.0596 63.4199 39.5173ZM77.1699 41.4554V43.1987H80.1699H83.1699V48.1796V53.1604H85.6699H88.1699V48.1796V43.1987H91.1699H94.1699V41.4554V39.7121H85.6699H77.1699V41.4554ZM95.0389 46.4363L91.6744 53.1604H98.4224C102.133 53.1604 105.17 53.0374 105.17 52.8865C105.17 52.7361 104.826 51.9516 104.407 51.1432C103.717 49.8148 103.405 49.6738 101.157 49.6738C99.7889 49.6738 98.6699 49.5553 98.6699 49.4103C98.6699 49.2659 99.3754 47.7552 100.238 46.0532L101.806 42.9591L104.351 48.0595L106.897 53.1604H109.534C110.983 53.1604 112.17 53.023 112.17 52.8546C112.17 52.6863 110.651 49.6634 108.795 46.1369L105.42 39.7255L101.911 39.7185L98.4029 39.7121L95.0389 46.4363ZM113.17 46.4363V53.1604H115.642H118.115L118.267 50.7945L118.42 48.4286L121.271 48.2802C124.618 48.1054 126.17 49.1777 126.17 51.6662C126.17 53.1271 126.225 53.1604 128.67 53.1604H131.17V50.7054C131.17 48.315 130.315 46.6853 129.061 46.6853C128.766 46.6853 129.119 46.1354 129.847 45.464C131.497 43.9403 131.527 42.5133 129.942 40.9349C128.745 39.7415 128.528 39.7121 120.942 39.7121H113.17V46.4363ZM125.42 43.9458C125.42 44.8369 125.037 44.9574 121.795 45.0884C118.191 45.2339 118.17 45.2274 118.17 43.9458C118.17 42.6642 118.191 42.6578 121.795 42.8032C125.037 42.9342 125.42 43.0547 125.42 43.9458ZM78.1699 59.1275C78.1699 59.396 78.5319 60.5167 78.9744 61.618C79.9809 64.1249 81.8664 64.4412 82.7419 62.2506L83.2889 60.8808L83.7714 62.2506C84.5394 64.4332 86.3639 64.1124 87.3654 61.618C88.3619 59.1375 88.3714 58.6394 87.4214 58.6394C87.0094 58.6394 86.3754 59.3656 86.0119 60.2527L85.3509 61.866L84.7864 60.2527C84.0234 58.0726 82.4809 58.0756 81.6559 60.2582L81.0444 61.877L80.5349 60.2582C80.2004 59.1958 79.7064 58.6394 79.0974 58.6394C78.5874 58.6394 78.1699 58.8591 78.1699 59.1275ZM89.6699 61.1299V63.6203H92.4199C93.9324 63.6203 95.1699 63.3962 95.1699 63.1222C95.1699 62.8483 94.3824 62.6241 93.4199 62.6241C92.4574 62.6241 91.6699 62.4 91.6699 62.126C91.6699 61.8521 92.4574 61.6279 93.4199 61.6279C95.7604 61.6279 95.6624 60.7433 93.2949 60.4963L91.4199 60.301L93.2949 60.2174C94.5909 60.1596 95.1699 59.9031 95.1699 59.3866C95.1699 58.8128 94.5309 58.6394 92.4199 58.6394H89.6699V61.1299ZM97.4764 61.0193L96.2659 63.3992H99.9199H103.574L102.363 61.0193C101.411 59.1475 100.89 58.6394 99.9199 58.6394C98.9499 58.6394 98.4284 59.1475 97.4764 61.0193ZM105.17 61.1299C105.17 63.0116 105.353 63.6203 105.92 63.6203C106.332 63.6203 106.67 63.2841 106.67 62.8732C106.67 62.3751 107.17 62.126 108.17 62.126C109.17 62.126 109.67 62.3751 109.67 62.8732C109.67 63.2861 110.113 63.6203 110.662 63.6203C111.498 63.6203 111.633 63.3264 111.524 61.7525C111.332 58.9821 110.932 58.6394 107.89 58.6394H105.17V61.1299ZM100.351 60.8808C100.524 61.3316 100.353 61.6279 99.9199 61.6279C99.4864 61.6279 99.3154 61.3316 99.4889 60.8808C99.6474 60.4699 99.8414 60.1337 99.9199 60.1337C99.9984 60.1337 100.192 60.4699 100.351 60.8808ZM109.045 60.4769C108.563 60.6024 107.776 60.6024 107.295 60.4769C106.813 60.3518 107.207 60.2492 108.17 60.2492C109.132 60.2492 109.526 60.3518 109.045 60.4769Z" fill="#AAB0B6"/>
</svg>
