<svg width="190" height="85" viewBox="0 0 190 85" fill="none" xmlns="http://www.w3.org/2000/svg">
<path d="M65.5991 40.329C65.6998 40.2454 65.8179 40.2198 65.954 40.329C65.9777 40.3514 65.9976 40.3781 66.0109 40.4077L68.1592 45.1663C68.2437 45.3782 68.2479 45.619 68.0842 45.8673C67.9048 46.1133 67.6792 46.1861 67.4537 46.1845H63.7602C63.6886 46.1838 63.6178 46.1688 63.5522 46.1402C63.4865 46.1122 63.4267 46.0721 63.3756 46.022C63.217 45.857 63.1676 45.6474 63.2456 45.4285L65.5419 40.4074C65.5556 40.378 65.5754 40.3514 65.5991 40.329ZM56.7116 50.7515C56.6561 50.8499 56.5894 50.9418 56.5132 51.0252C56.3443 51.2068 56.1536 51.3309 55.9584 51.4042L54.2794 52.0078C54.1167 52.0662 53.9659 52.1536 53.8344 52.2658C53.7037 52.3788 53.5954 52.5152 53.5149 52.668C53.4405 52.8125 53.39 52.968 53.3651 53.1286C53.344 53.2702 53.3514 53.384 53.3766 53.4936C53.4018 53.6037 53.4453 53.7089 53.5053 53.8047C53.5654 53.8999 53.6414 53.9842 53.7298 54.0539C53.9131 54.1998 54.1393 54.2693 54.3565 54.2677L61.1251 54.2711C61.2331 54.2709 61.3404 54.2524 61.4422 54.2165C61.5441 54.1801 61.6391 54.1269 61.7233 54.0591C61.893 53.9229 62.0109 53.7328 62.0574 53.5203C62.1052 53.3084 62.0744 53.0269 61.962 52.7455C61.9015 52.6011 61.8167 52.4683 61.7111 52.3528C61.4786 52.1025 61.1563 51.9643 60.872 51.7801C60.737 51.6985 60.6396 51.5671 60.6008 51.4142C60.5617 51.2611 60.5845 51.0988 60.6642 50.9624L61.153 50.1629C61.2063 50.075 61.2801 50.0012 61.3616 49.9387C61.4431 49.8762 61.5355 49.8267 61.6342 49.8007C61.7331 49.7745 61.8366 49.7928 61.9395 49.7928H69.6856C69.82 49.7928 69.955 49.8092 70.0805 49.8581C70.2069 49.9085 70.322 49.9839 70.4188 50.0796C70.5155 50.1752 70.5977 50.2873 70.6488 50.4133L72.0184 53.7881C72.0555 53.8793 72.1189 53.9594 72.19 54.0279C72.3411 54.1731 72.5367 54.2529 72.7239 54.2565L80.5408 54.2599C80.6871 54.2599 80.8336 54.2363 80.9704 54.1842C81.1077 54.1324 81.2338 54.0549 81.3419 53.9557C81.672 53.6559 81.7797 53.2025 81.6924 52.8089C81.6646 52.6855 81.618 52.5671 81.5543 52.4577C81.4908 52.348 81.4105 52.2487 81.3167 52.1633C81.2229 52.0789 81.1173 52.0051 81.001 51.9557L80.0093 51.5342C79.8255 51.4568 79.658 51.3439 79.5005 51.2213C79.3428 51.0986 79.199 50.9591 79.0716 50.8051C78.9441 50.6512 78.8214 50.4897 78.7429 50.3065L70.3612 30.7528C70.3066 30.6254 70.2019 30.5251 70.0964 30.4351C69.8752 30.247 69.6001 30.1454 69.3353 30.1425L61.8603 30.1529C61.7423 30.1525 61.6249 30.1706 61.5125 30.2066C61.4002 30.2433 61.2946 30.2981 61.2 30.3689C61.1056 30.4394 61.0229 30.5257 60.9561 30.6227C60.8893 30.7202 60.8384 30.8277 60.8055 30.9412C60.7336 31.1686 60.7579 31.4909 60.8951 31.8092C60.968 31.973 61.0714 32.1214 61.1998 32.2465C61.3278 32.3716 61.4804 32.4703 61.6442 32.5428L62.6139 32.9718C62.7116 33.015 62.8098 33.0575 62.8975 33.1187C62.9853 33.1796 63.0647 33.2516 63.1338 33.333C63.2027 33.4145 63.2671 33.5023 63.3067 33.6011L63.7816 34.7864C63.889 35.1037 63.8712 35.4617 63.6961 35.8015L56.7116 50.7515ZM100.694 44.246C100.783 44.3155 100.859 44.4006 100.954 44.5387C101.049 44.6779 101.163 44.8699 101.272 45.0289C101.38 45.1878 101.485 45.3129 101.611 45.4121C101.869 45.6137 102.208 45.697 102.524 45.6545C102.684 45.6337 102.84 45.5806 102.981 45.5006C103.121 45.4199 103.25 45.3157 103.345 45.1844L106.246 41.1596C106.431 40.896 106.505 40.5681 106.474 40.2603C106.459 40.1029 106.416 39.9494 106.347 39.8068C106.279 39.6642 106.186 39.5347 106.073 39.4238C105.697 39.0659 105.227 38.9587 104.761 39.0821C104.61 39.125 104.468 39.1958 104.163 39.3878C103.859 39.5799 103.392 39.893 103.08 40.0924C102.766 40.2921 102.608 40.3776 102.441 40.4463C102.104 40.5817 101.745 40.6624 101.391 40.6709H93.96L93.9574 33.7667L101.411 33.7639C101.949 33.76 102.506 33.8453 103.046 34.0548C103.306 34.1548 103.56 34.2746 103.792 34.4278L106.05 35.9137C106.444 36.1839 106.924 36.2281 107.379 35.8672C107.572 35.6959 107.786 35.4275 107.936 35.1993C108.143 34.8708 108.174 34.5534 108.064 34.2099C108.027 34.1032 107.972 34.0038 107.908 33.9108L105.821 30.895C105.715 30.7426 105.59 30.6045 105.442 30.4913C105.137 30.2559 104.769 30.1312 104.412 30.1288L85.772 30.1588C85.6113 30.1591 85.4487 30.1423 85.2951 30.189C85.1412 30.2356 84.9983 30.3189 84.8748 30.4242C84.7514 30.5298 84.6482 30.6569 84.5705 30.7994C84.4148 31.087 84.3725 31.4224 84.4518 31.7396C84.4915 31.8967 84.5601 32.0451 84.654 32.1773C84.7479 32.3091 84.8638 32.4271 85.0013 32.5118L85.772 32.9866C85.8631 33.0418 85.9443 33.1117 86.0126 33.1935C86.1485 33.3596 86.2223 33.5677 86.2216 33.7823L86.2302 50.323C86.2309 50.4799 86.2033 50.6356 86.1485 50.7826C86.0369 51.0633 85.8674 51.2762 85.4879 51.4822C85.3082 51.583 85.0783 51.6933 84.895 51.8009C84.7115 51.9078 84.5745 52.0121 84.464 52.1399C84.235 52.4049 84.1323 52.7577 84.1587 53.0862C84.1853 53.43 84.3461 53.7495 84.6063 53.9759C84.8735 54.2132 85.2217 54.3078 85.5498 54.2976L104.226 54.3C104.431 54.3 104.635 54.2782 104.831 54.2199C105.028 54.1619 105.214 54.073 105.383 53.9567C105.551 53.8414 105.705 53.7021 105.824 53.5364L108.06 50.4431C108.307 50.0964 108.367 49.6784 108.206 49.2638C108.154 49.1358 108.081 49.017 107.991 48.9122C107.901 48.8079 107.793 48.7184 107.64 48.6384C107.336 48.4743 106.877 48.3838 106.478 48.4924C106.279 48.542 106.097 48.642 105.923 48.7503L103.446 50.2874C103.022 50.5506 102.507 50.6262 102.023 50.7228C101.536 50.8213 101.04 50.8708 100.543 50.8705L93.9574 50.8565L93.96 44.0887H100.396C100.509 44.0888 100.605 44.1776 100.694 44.246ZM129.68 30.5253C129.595 30.5836 129.493 30.6127 129.39 30.6083C129.338 30.6059 129.288 30.5951 129.192 30.5616C129.096 30.5282 128.956 30.4721 128.815 30.418C128.673 30.3639 128.53 30.3118 127.753 30.1612C126.976 30.0107 125.564 29.7622 124.15 29.7757C122.735 29.7891 121.318 30.0648 119.983 30.5596C118.649 31.0542 117.396 31.7676 116.343 32.5861C115.29 33.4043 114.435 34.3276 113.73 35.3527C113.025 36.378 112.47 37.5051 112.091 38.6884C111.712 39.8716 111.51 41.111 111.484 42.3186C111.458 43.5266 111.608 44.7022 111.934 45.8276C112.26 46.953 112.762 48.0276 113.422 48.9912C114.083 49.9548 114.902 50.8062 115.621 51.425C116.34 52.0427 116.959 52.4278 117.599 52.7684C118.238 53.1098 118.899 53.4087 119.579 53.6581C120.257 53.9075 120.956 54.1091 121.945 54.2767C122.934 54.4443 124.214 54.5782 125.493 54.56C126.774 54.5422 128.049 54.3727 129.29 54.0552C130.529 53.738 131.729 53.2739 132.672 52.8335C133.614 52.393 134.297 51.975 134.797 51.644C135.297 51.3127 135.614 51.0678 135.797 50.914C135.981 50.7602 136.032 50.6976 136.073 50.629C136.114 50.5603 136.146 50.4866 136.167 50.4101C136.189 50.3337 136.198 50.2536 136.206 50.1311C136.215 50.0077 136.222 49.8426 136.192 49.6844C136.162 49.5212 136.089 49.3688 135.981 49.2431C135.866 49.1084 135.704 48.99 135.597 48.8991C135.385 48.7139 135.362 48.6097 135.314 48.4591C135.295 48.3829 135.288 48.3036 135.288 48.2245L135.277 45.0582C135.275 44.6969 135.406 44.3474 135.646 44.0774L136.34 43.2971C136.561 43.046 136.662 42.7166 136.645 42.4073C136.628 42.0825 136.487 41.7766 136.251 41.553C136.005 41.3192 135.681 41.2059 135.375 41.2071L127.223 41.2082C127.087 41.2082 126.952 41.2395 126.825 41.2894C126.698 41.3398 126.581 41.412 126.479 41.5027C126.378 41.5937 126.293 41.7016 126.229 41.8218C126.1 42.0643 126.061 42.3446 126.119 42.6131C126.148 42.7459 126.2 42.8736 126.273 42.9882C126.346 43.104 126.439 43.2055 126.547 43.2881C126.851 43.5836 127.233 43.7903 127.444 43.9684C127.654 44.1475 127.738 44.2437 127.807 44.3517C127.946 44.5715 128.008 44.8269 128.003 45.0755L128.001 49.2791C128.001 49.4563 127.976 49.6337 127.922 49.803C127.868 49.9722 127.787 50.1317 127.683 50.2758C127.578 50.4202 127.453 50.5479 127.31 50.6545C127.168 50.7614 127.009 50.8484 126.638 50.9449C126.268 51.0422 125.685 51.1482 125.1 51.1472C124.516 51.1464 123.93 51.0378 123.378 50.8371C122.825 50.6366 122.311 50.3434 121.856 49.97C121.404 49.5982 121.019 49.1462 120.729 48.7014C120.439 48.2557 120.245 47.815 120.071 47.3679C119.898 46.9216 119.748 46.4668 119.621 46.0053C119.494 45.5447 119.392 45.0763 119.309 44.2952C119.227 43.5149 119.164 42.4214 119.256 41.3393C119.346 40.2571 119.591 39.1857 119.97 38.1631C120.348 37.1405 120.86 36.1667 121.341 35.4746C121.821 34.7825 122.27 34.3722 122.778 34.0571C123.784 33.4288 125.044 33.185 126.217 33.4332C126.798 33.5549 127.352 33.7942 127.935 34.1381C128.517 34.4818 129.129 34.9299 129.726 35.3932C130.323 35.8566 130.907 36.3353 131.472 36.8349C131.594 36.96 131.737 37.0634 131.894 37.1408C132.211 37.2954 132.57 37.3368 132.914 37.258C133.258 37.1789 133.564 36.9838 133.779 36.7056C133.995 36.4273 134.109 36.0833 134.102 35.7311C134.069 35.1337 133.952 34.5438 133.753 33.9793C133.653 33.6975 133.546 33.4164 133.396 33.1577L131.543 29.9521C131.486 29.8535 131.412 29.7663 131.323 29.6947C131.049 29.4827 130.702 29.4336 130.36 29.5983C130.258 29.6492 130.164 29.7186 130.083 29.8364C130.002 29.9541 129.934 30.1203 129.89 30.2263C129.844 30.3326 129.822 30.3791 129.791 30.4201C129.76 30.461 129.723 30.4966 129.68 30.5253Z" fill="#AAB0B6"/>
</svg>
