<svg width="190" height="85" viewBox="0 0 190 85" fill="none" xmlns="http://www.w3.org/2000/svg">
<path d="M155.773 52.5557H161.519L155.59 32.8549L147.425 32.8545L141.496 52.5553H147.244L148.291 48.9085H154.72L155.773 52.5553V52.5557ZM149.535 44.5279L151.491 37.7213H151.524L153.48 44.5279H149.535Z" fill="#AAB0B6"/>
<path d="M57.1643 52.909C63.0645 52.909 65.9166 51.8626 66.3206 46.502C66.417 45.2265 66.4353 43.917 66.4353 42.7031C66.437 41.4933 66.417 40.1824 66.3206 38.907C65.9166 33.5448 63.0645 32.5 57.1643 32.5C51.2641 32.5 48.4138 33.5448 48.0114 38.907C47.9133 40.1824 47.8933 41.4933 47.8933 42.7031C47.895 43.917 47.9133 45.2265 48.0114 46.502C48.4138 51.8626 51.2641 52.909 57.1643 52.909ZM53.4543 42.7031C53.4543 41.6212 53.4809 40.9818 53.5041 40.5072C53.6538 37.4664 54.8462 37.112 57.1643 37.112C59.4842 37.112 60.6765 37.4664 60.8245 40.5072C60.8478 40.9816 60.8761 41.621 60.8761 42.7031C60.8761 43.7884 60.8478 44.429 60.8245 44.9024C60.6765 47.9437 59.4842 48.2988 57.1643 48.2988C54.8462 48.2988 53.6538 47.9437 53.5041 44.9024C53.4809 44.429 53.4543 43.7884 53.4543 42.7031Z" fill="#AAB0B6"/>
<path d="M28.4814 32.8638V37.7749H34.3304V52.5643H40.1815V37.7749H46.0307V32.8638H28.4814Z" fill="#AAB0B6"/>
<path d="M118.256 52.5557V32.8545H112.704V52.5557H118.256Z" fill="#AAB0B6"/>
<path d="M95.9146 40.0475V32.8545H90.3936V52.5557H95.9146V44.9587H102.33V52.5557H107.85V32.8545H102.33V40.0475H95.9146Z" fill="#AAB0B6"/>
<path d="M136.519 42.2588C138.979 41.6258 139.701 40.1465 139.701 38.0083C139.701 33.6785 136.995 32.8545 133.149 32.8545H123.179V52.5553H133.642C138.46 52.5553 140.08 50.4657 140.08 47.2517C140.08 45.0109 139.571 43.0338 136.519 42.2584V42.2588ZM128.699 44.4634H132.527C134.073 44.4634 134.396 45.1455 134.396 46.255C134.396 47.3654 133.79 48.0494 132.527 48.0494H128.699V44.4634ZM128.699 37.3598H132.527C133.526 37.3598 134.145 37.8372 134.145 38.9853C134.145 39.9695 133.533 40.5753 132.527 40.5753H128.699V37.3598Z" fill="#AAB0B6"/>
<path d="M69.6531 46.0908H74.9164C74.9214 47.0465 75.0428 47.6853 75.5034 48.0381C76.0272 48.4355 76.4962 48.5668 78.0511 48.5668C79.5477 48.5668 81.1874 48.5668 81.1874 46.7108C81.1874 45.247 80.2711 44.913 78.5799 44.8222C74.3859 44.5985 72.8692 44.4792 71.3078 43.3111C70.2434 42.5146 69.6913 40.964 69.6913 38.8669C69.6913 35.301 70.9269 34.0501 72.7096 33.1772C74.5489 32.2762 81.7677 32.2762 83.7101 33.1772C86.153 34.3104 86.2245 36.7637 86.2245 39.0394H80.9746C80.9646 37.8792 80.7052 37.5516 80.494 37.3357C79.9485 36.8488 79.1719 36.746 78.0511 36.746C76.6941 36.746 75.1243 36.8076 75.1243 38.4667C75.1243 39.7326 75.668 40.2617 77.0949 40.3548C79.0555 40.4811 82.9185 40.6054 84.2955 41.4236C86.2262 42.5734 86.7267 44.1292 86.7267 46.6676C86.7267 50.3358 85.423 51.4125 83.6087 52.2195C81.515 53.1504 74.5223 53.1504 72.249 52.1475C69.7046 51.0307 69.6531 48.8048 69.6531 46.0908Z" fill="#AAB0B6"/>
</svg>
