<svg width="40" height="40" viewBox="0 0 40 40" fill="none" xmlns="http://www.w3.org/2000/svg">
<path d="M20.0002 40C15.3669 38.8333 11.5416 36.1747 8.52425 32.024C5.50691 27.8733 3.99891 23.2653 4.00025 18.2V6L20.0002 0L36.0002 6V18.2C36.0002 23.2667 34.4916 27.8753 31.4742 32.026C28.4569 36.1767 24.6322 38.8347 20.0002 40ZM20.0002 35.8C23.4669 34.7 26.3336 32.5 28.6002 29.2C30.8669 25.9 32.0002 22.2333 32.0002 18.2V8.75L20.0002 4.25L8.00025 8.75V18.2C8.00025 22.2333 9.13358 25.9 11.4002 29.2C13.6669 32.5 16.5336 34.7 20.0002 35.8ZM16.0002 28H24.0002C24.5669 28 25.0422 27.808 25.4262 27.424C25.8102 27.04 26.0016 26.5653 26.0002 26V20C26.0002 19.4333 25.8082 18.958 25.4242 18.574C25.0402 18.19 24.5656 17.9987 24.0002 18V16C24.0002 14.9 23.6082 13.958 22.8242 13.174C22.0402 12.39 21.0989 11.9987 20.0002 12C18.9002 12 17.9582 12.392 17.1742 13.176C16.3902 13.96 15.9989 14.9013 16.0002 16V18C15.4336 18 14.9582 18.192 14.5742 18.576C14.1902 18.96 13.9989 19.4347 14.0002 20V26C14.0002 26.5667 14.1922 27.042 14.5762 27.426C14.9602 27.81 15.4349 28.0013 16.0002 28ZM18.0002 18V16C18.0002 15.4333 18.1922 14.958 18.5762 14.574C18.9602 14.19 19.4349 13.9987 20.0002 14C20.5669 14 21.0422 14.192 21.4262 14.576C21.8102 14.96 22.0016 15.4347 22.0002 16V18H18.0002Z" fill="#B16DFF"/>
</svg>
