<svg width="10" height="7" viewBox="0 0 10 7" fill="none" xmlns="http://www.w3.org/2000/svg">
<path d="M9.66415 1.85487L4.56146 6.6818C4.34449 6.88704 4.05608 7 3.74928 7C3.44247 7 3.15406 6.88704 2.93709 6.6818L0.336467 4.22171C0.119501 4.01647 0 3.74364 0 3.45342C0 3.16312 0.119501 2.89029 0.336467 2.68505C0.553349 2.47981 0.841761 2.36677 1.14865 2.36677C1.45545 2.36677 1.74395 2.47981 1.96083 2.68513L3.74919 4.37676L8.03961 0.318204C8.25658 0.112963 8.54499 0 8.85179 0C9.1586 0 9.44701 0.112963 9.66398 0.318204C10.112 0.741994 10.112 1.43124 9.66415 1.85487Z" fill="#898890"/>
</svg>
