<svg width="11" height="8" viewBox="0 0 11 8" fill="none" xmlns="http://www.w3.org/2000/svg">
<path d="M10.1578 2.35487L5.05511 7.1818C4.83815 7.38704 4.54973 7.5 4.24293 7.5C3.93613 7.5 3.64771 7.38704 3.43075 7.1818L0.830119 4.72171C0.613153 4.51647 0.493652 4.24364 0.493652 3.95342C0.493652 3.66312 0.613153 3.39029 0.830119 3.18505C1.047 2.97981 1.33541 2.86677 1.6423 2.86677C1.94911 2.86677 2.2376 2.97981 2.45448 3.18513L4.24284 4.87676L8.53327 0.818204C8.75023 0.612963 9.03864 0.5 9.34545 0.5C9.65225 0.5 9.94066 0.612963 10.1576 0.818204C10.6056 1.24199 10.6056 1.93124 10.1578 2.35487Z" fill="#898890"/>
</svg>
