<svg width="20" height="20" viewBox="0 0 20 20" fill="none" xmlns="http://www.w3.org/2000/svg">
<g clip-path="url(#clip0_901_296)">
<rect width="20" height="20" fill="white"/>
<path fill-rule="evenodd" clip-rule="evenodd" d="M0 0H12V9.33333H0V0Z" fill="#1A47B8"/>
<path fill-rule="evenodd" clip-rule="evenodd" d="M12 0V1.33333H28V0H12ZM12 2.66667V4H28V2.66667H12ZM12 5.33333V6.66667H28V5.33333H12ZM12 8V9.33333H28V8H12ZM0 10.6667V12H28V10.6667H0ZM0 13.3333V14.6667H28V13.3333H0ZM0 16V17.3333H28V16H0ZM0 18.6667V20H28V18.6667H0Z" fill="#F93939"/>
<path fill-rule="evenodd" clip-rule="evenodd" d="M1.33325 1.33337V2.66671H2.66659V1.33337H1.33325ZM3.99992 1.33337V2.66671H5.33325V1.33337H3.99992ZM6.66659 1.33337V2.66671H7.99992V1.33337H6.66659ZM9.33325 1.33337V2.66671H10.6666V1.33337H9.33325ZM7.99992 2.66671V4.00004H9.33325V2.66671H7.99992ZM5.33325 2.66671V4.00004H6.66659V2.66671H5.33325ZM2.66659 2.66671V4.00004H3.99992V2.66671H2.66659ZM1.33325 4.00004V5.33337H2.66659V4.00004H1.33325ZM3.99992 4.00004V5.33337H5.33325V4.00004H3.99992ZM6.66659 4.00004V5.33337H7.99992V4.00004H6.66659ZM9.33325 4.00004V5.33337H10.6666V4.00004H9.33325ZM1.33325 6.66671V8.00004H2.66659V6.66671H1.33325ZM3.99992 6.66671V8.00004H5.33325V6.66671H3.99992ZM6.66659 6.66671V8.00004H7.99992V6.66671H6.66659ZM9.33325 6.66671V8.00004H10.6666V6.66671H9.33325ZM7.99992 5.33337V6.66671H9.33325V5.33337H7.99992ZM5.33325 5.33337V6.66671H6.66659V5.33337H5.33325ZM2.66659 5.33337V6.66671H3.99992V5.33337H2.66659Z" fill="white"/>
</g>
<defs>
<clipPath id="clip0_901_296">
<rect width="20" height="20" fill="white"/>
</clipPath>
</defs>
</svg>
