<svg width="207" height="255" viewBox="0 0 207 255" fill="none" xmlns="http://www.w3.org/2000/svg">
<g filter="url(#filter0_f_901_318)">
<path d="M153.106 168.994L112.085 145.061C107.366 142.313 99.6824 142.313 94.9632 145.061L54.1848 168.994C49.4656 171.741 49.5261 176.259 54.2453 179.006L95.2657 202.939C99.9849 205.687 107.669 205.687 112.388 202.939L153.166 179.006C157.885 176.259 157.825 171.741 153.106 168.994Z" fill="#110945"/>
</g>
<path d="M173.198 42.1412L115.436 20.7229C108.859 16.9283 98.1499 16.9283 91.5726 20.7229L36.6777 46.8633L29.8475 42.9001C29.8475 48.0836 29.6815 118.78 29.6757 123.15C29.6634 132.359 30.3621 139.276 34.8226 141.849L91.9942 174.904C98.5715 178.699 109.281 178.699 115.858 174.904L172.692 141.849C177.012 139.357 177.767 133.591 177.777 124.837C177.782 120.263 177.583 49.0639 177.583 42.9001" fill="url(#paint0_linear_901_318)"/>
<path d="M173.198 42.1412L115.436 20.7229C108.859 16.9283 98.1499 16.9283 91.5726 20.7229L36.6777 46.8633L29.8475 42.9001C29.8475 48.0836 29.6815 118.78 29.6757 123.15C29.6634 132.359 30.3621 139.276 34.8226 141.849L91.9942 174.904C98.5715 178.699 109.281 178.699 115.858 174.904L172.692 141.849C177.012 139.357 177.767 133.591 177.777 124.837C177.782 120.263 177.583 49.0639 177.583 42.9001" fill="url(#paint1_linear_901_318)"/>
<path d="M172.608 35.9009L115.436 2.84593C108.859 -0.948645 98.15 -0.948645 91.5728 2.84593L34.7384 35.9009C28.1611 39.6955 28.2455 45.9355 34.8227 49.7301L91.9944 82.7851C98.5717 86.5796 109.281 86.5796 115.858 82.7851L172.692 49.7301C179.27 45.9355 179.185 39.6955 172.608 35.9009Z" fill="url(#paint2_radial_901_318)"/>
<defs>
<filter id="filter0_f_901_318" x="0.675537" y="93" width="206" height="162" filterUnits="userSpaceOnUse" color-interpolation-filters="sRGB">
<feFlood flood-opacity="0" result="BackgroundImageFix"/>
<feBlend mode="normal" in="SourceGraphic" in2="BackgroundImageFix" result="shape"/>
<feGaussianBlur stdDeviation="25" result="effect1_foregroundBlur_901_318"/>
</filter>
<linearGradient id="paint0_linear_901_318" x1="29.6788" y1="54.8741" x2="178.089" y2="54.4525" gradientUnits="userSpaceOnUse">
<stop stop-color="#3D85FF"/>
<stop offset="0.130208" stop-color="#25A4FF"/>
<stop offset="0.260417" stop-color="#1D99FF"/>
<stop offset="0.426153" stop-color="#3C86FF"/>
<stop offset="0.503412" stop-color="#DFF4FF"/>
<stop offset="0.679613" stop-color="#94BFFF"/>
<stop offset="0.834327" stop-color="#62A2FF"/>
<stop offset="1" stop-color="#47B1FD"/>
</linearGradient>
<linearGradient id="paint1_linear_901_318" x1="27.6755" y1="172.663" x2="177.676" y2="172.663" gradientUnits="userSpaceOnUse">
<stop stop-color="#432F9E"/>
<stop offset="0.306667" stop-color="#6B22BC"/>
<stop offset="0.486667" stop-color="#3E309A"/>
<stop offset="0.593333" stop-color="#E9B350"/>
<stop offset="0.8333" stop-color="#93FAFF"/>
<stop offset="0.898705" stop-color="#46ABEC"/>
<stop offset="1" stop-color="#7C1DC9"/>
</linearGradient>
<radialGradient id="paint2_radial_901_318" cx="0" cy="0" r="1" gradientUnits="userSpaceOnUse" gradientTransform="translate(177.676 43) rotate(170.789) scale(149.933 111.517)">
<stop stop-color="#E6B657"/>
<stop offset="0.270107" stop-color="#9BECFC"/>
<stop offset="0.49395" stop-color="#4F94E7"/>
<stop offset="0.704932" stop-color="#6346C9"/>
<stop offset="1" stop-color="#2E217D"/>
</radialGradient>
</defs>
</svg>
