<svg width="62" height="69" viewBox="0 0 62 69" fill="none" xmlns="http://www.w3.org/2000/svg">
<path fill-rule="evenodd" clip-rule="evenodd" d="M35.4224 2.70674L45.9998 8.7576L56.578 14.8085C59.3907 16.4174 61 19.1803 61 22.3983V34.5V46.6017C61 49.8197 59.3907 52.5826 56.578 54.1915L45.9998 60.2424L35.4224 66.2933C32.6097 67.9022 29.3903 67.9022 26.5776 66.2933L16.0002 60.2424L5.42274 54.1915C2.61003 52.5826 1 49.8197 1 46.6017V34.5V22.3983C1 19.1803 2.61003 16.4174 5.42274 14.8085L16.0002 8.7576L26.5776 2.70674C29.3903 1.09775 32.6097 1.09775 35.4224 2.70674V2.70674Z" stroke="white" stroke-opacity="0.2" stroke-width="2"/>
</svg>
