<svg width="17" height="15" viewBox="0 0 17 15" fill="none" xmlns="http://www.w3.org/2000/svg">
<g clip-path="url(#clip0_907_802)">
<path fill-rule="evenodd" clip-rule="evenodd" d="M13.2876 15.0005C13.1692 15.001 13.0537 14.9658 12.9575 14.9001L8.43602 11.7782L3.91458 14.9001C3.81798 14.9668 3.7016 15.0025 3.58227 15.0021C3.46294 15.0017 3.34684 14.9652 3.25076 14.8978C3.15467 14.8304 3.08358 14.7356 3.04776 14.6272C3.01194 14.5188 3.01324 14.4024 3.05149 14.2947L4.81493 9.32026L0.244616 6.33533C0.14562 6.27075 0.0709031 6.17771 0.0313829 6.0698C-0.00813729 5.9619 -0.01039 5.84479 0.024954 5.73557C0.060298 5.62636 0.131386 5.53078 0.227832 5.46278C0.324278 5.39479 0.441027 5.35795 0.561022 5.35765H6.19938L7.90094 0.370489C7.9376 0.262818 8.00912 0.168971 8.10525 0.102411C8.20138 0.0358515 8.31717 0 8.43602 0C8.55487 0 8.67067 0.0358515 8.76679 0.102411C8.86292 0.168971 8.93444 0.262818 8.9711 0.370489L10.6727 5.35933H16.311C16.4312 5.35927 16.5482 5.39585 16.6449 5.46372C16.7416 5.53158 16.813 5.62716 16.8486 5.73645C16.8842 5.84574 16.882 5.96301 16.8426 6.07108C16.8031 6.17915 16.7283 6.27234 16.6292 6.33701L12.0571 9.32026L13.8195 14.2934C13.8481 14.3739 13.8561 14.4597 13.8429 14.5438C13.8298 14.6278 13.7958 14.7077 13.7438 14.7768C13.6919 14.8459 13.6234 14.9022 13.5441 14.9411C13.4647 14.98 13.3768 15.0004 13.2876 15.0005ZM40.1614 15.0005C40.043 15.001 39.9274 14.9658 39.8312 14.9001L35.3098 11.7782L30.7884 14.9001C30.6918 14.9668 30.5754 15.0025 30.4561 15.0021C30.3367 15.0017 30.2206 14.9652 30.1245 14.8978C30.0284 14.8304 29.9574 14.7356 29.9215 14.6272C29.8857 14.5188 29.887 14.4024 29.9253 14.2947L31.6887 9.32026L27.1184 6.33533C27.0194 6.27075 26.9447 6.17771 26.9052 6.0698C26.8656 5.9619 26.8634 5.84479 26.8987 5.73557C26.9341 5.62636 27.0052 5.53078 27.1016 5.46278C27.1981 5.39479 27.3148 5.35795 27.4348 5.35765H33.0732L34.7747 0.370489C34.8114 0.262818 34.8829 0.168971 34.979 0.102411C35.0752 0.0358515 35.191 0 35.3098 0C35.4286 0 35.5444 0.0358515 35.6406 0.102411C35.7367 0.168971 35.8082 0.262818 35.8449 0.370489L37.5464 5.35933H43.1848C43.3049 5.35927 43.422 5.39585 43.5187 5.46372C43.6154 5.53158 43.6868 5.62716 43.7224 5.73645C43.7579 5.84574 43.7558 5.96301 43.7163 6.07108C43.6769 6.17915 43.6021 6.27234 43.503 6.33701L38.9309 9.32026L40.6933 14.2934C40.7218 14.3739 40.7299 14.4597 40.7167 14.5438C40.7036 14.6278 40.6696 14.7077 40.6176 14.7768C40.5657 14.8459 40.4972 14.9022 40.4178 14.9411C40.3385 14.98 40.2506 15.0004 40.1614 15.0005ZM66.705 14.9001C66.8012 14.9658 66.9167 15.001 67.0351 15.0005C67.1244 15.0004 67.2123 14.98 67.2916 14.9411C67.371 14.9022 67.4394 14.8459 67.4914 14.7768C67.5434 14.7077 67.5773 14.6278 67.5905 14.5438C67.6036 14.4597 67.5956 14.3739 67.5671 14.2934L65.8047 9.32026L70.3767 6.33701C70.4759 6.27234 70.5506 6.17915 70.5901 6.07108C70.6296 5.96301 70.6317 5.84574 70.5961 5.73645C70.5606 5.62716 70.4892 5.53158 70.3925 5.46372C70.2957 5.39585 70.1787 5.35927 70.0586 5.35933H64.4202L62.7187 0.370489C62.682 0.262818 62.6105 0.168971 62.5144 0.102411C62.4182 0.0358515 62.3024 0 62.1836 0C62.0647 0 61.9489 0.0358515 61.8528 0.102411C61.7567 0.168971 61.6852 0.262818 61.6485 0.370489L59.9469 5.35765H54.3086C54.1886 5.35795 54.0718 5.39479 53.9754 5.46278C53.8789 5.53078 53.8079 5.62636 53.7725 5.73557C53.7372 5.84479 53.7394 5.9619 53.7789 6.0698C53.8185 6.17771 53.8932 6.27075 53.9922 6.33533L58.5625 9.32026L56.799 14.2947C56.7608 14.4024 56.7595 14.5188 56.7953 14.6272C56.8311 14.7356 56.9022 14.8304 56.9983 14.8978C57.0944 14.9652 57.2105 15.0017 57.3298 15.0021C57.4492 15.0025 57.5655 14.9668 57.6621 14.9001L62.1836 11.7782L66.705 14.9001ZM93.9089 15.0005C93.7905 15.001 93.675 14.9658 93.5788 14.9001L89.0574 11.7782L84.5359 14.9001C84.4393 14.9668 84.3229 15.0025 84.2036 15.0021C84.0843 15.0017 83.9682 14.9652 83.8721 14.8978C83.776 14.8304 83.7049 14.7356 83.6691 14.6272C83.6333 14.5188 83.6346 14.4024 83.6728 14.2947L85.4363 9.32026L80.866 6.33533C80.767 6.27075 80.6922 6.17771 80.6527 6.0698C80.6132 5.9619 80.6109 5.84479 80.6463 5.73557C80.6816 5.62636 80.7527 5.53078 80.8492 5.46278C80.9456 5.39479 81.0624 5.35795 81.1824 5.35765H86.8207L88.5223 0.370489C88.5589 0.262818 88.6305 0.168971 88.7266 0.102411C88.8227 0.0358515 88.9385 0 89.0574 0C89.1762 0 89.292 0.0358515 89.3881 0.102411C89.4843 0.168971 89.5558 0.262818 89.5924 0.370489L91.294 5.35933H96.9324C97.0525 5.35927 97.1695 5.39585 97.2662 5.46372C97.363 5.53158 97.4344 5.62716 97.4699 5.73645C97.5055 5.84574 97.5034 5.96301 97.4639 6.07108C97.4244 6.17915 97.3496 6.27234 97.2505 6.33701L92.6785 9.32026L94.4408 14.2934C94.4694 14.3739 94.4774 14.4597 94.4643 14.5438C94.4511 14.6278 94.4172 14.7077 94.3652 14.7768C94.3132 14.8459 94.2447 14.9022 94.1654 14.9411C94.0861 14.98 93.9982 15.0004 93.9089 15.0005ZM120.453 14.9001C120.549 14.9658 120.664 15.001 120.783 15.0005C120.872 15.0004 120.96 14.98 121.039 14.9411C121.119 14.9022 121.187 14.8459 121.239 14.7768C121.291 14.7077 121.325 14.6278 121.338 14.5438C121.351 14.4597 121.343 14.3739 121.315 14.2934L119.552 9.32026L124.124 6.33701C124.223 6.27234 124.298 6.17915 124.338 6.07108C124.377 5.96301 124.379 5.84574 124.344 5.73645C124.308 5.62716 124.237 5.53158 124.14 5.46372C124.043 5.39585 123.926 5.35927 123.806 5.35933H118.168L116.466 0.370489C116.43 0.262818 116.358 0.168971 116.262 0.102411C116.166 0.0358515 116.05 0 115.931 0C115.812 0 115.696 0.0358515 115.6 0.102411C115.504 0.168971 115.433 0.262818 115.396 0.370489L113.694 5.35765H108.056C107.936 5.35795 107.819 5.39479 107.723 5.46278C107.627 5.53078 107.555 5.62636 107.52 5.73557C107.485 5.84479 107.487 5.9619 107.526 6.0698C107.566 6.17771 107.641 6.27075 107.74 6.33533L112.31 9.32026L110.547 14.2947C110.508 14.4024 110.507 14.5188 110.543 14.6272C110.579 14.7356 110.65 14.8304 110.746 14.8978C110.842 14.9652 110.958 15.0017 111.077 15.0021C111.197 15.0025 111.313 14.9668 111.41 14.9001L115.931 11.7782L120.453 14.9001Z" fill="black"/>
<path fill-rule="evenodd" clip-rule="evenodd" d="M13.2876 15.0005C13.1692 15.001 13.0537 14.9658 12.9575 14.9001L8.43602 11.7782L3.91458 14.9001C3.81798 14.9668 3.7016 15.0025 3.58227 15.0021C3.46294 15.0017 3.34684 14.9652 3.25076 14.8978C3.15467 14.8304 3.08358 14.7356 3.04776 14.6272C3.01194 14.5188 3.01324 14.4024 3.05149 14.2947L4.81493 9.32026L0.244616 6.33533C0.14562 6.27075 0.0709031 6.17771 0.0313829 6.0698C-0.00813729 5.9619 -0.01039 5.84479 0.024954 5.73557C0.060298 5.62636 0.131386 5.53078 0.227832 5.46278C0.324278 5.39479 0.441027 5.35795 0.561022 5.35765H6.19938L7.90094 0.370489C7.9376 0.262818 8.00912 0.168971 8.10525 0.102411C8.20138 0.0358515 8.31717 0 8.43602 0C8.55487 0 8.67067 0.0358515 8.76679 0.102411C8.86292 0.168971 8.93444 0.262818 8.9711 0.370489L10.6727 5.35933H16.311C16.4312 5.35927 16.5482 5.39585 16.6449 5.46372C16.7416 5.53158 16.813 5.62716 16.8486 5.73645C16.8842 5.84574 16.882 5.96301 16.8426 6.07108C16.8031 6.17915 16.7283 6.27234 16.6292 6.33701L12.0571 9.32026L13.8195 14.2934C13.8481 14.3739 13.8561 14.4597 13.8429 14.5438C13.8298 14.6278 13.7958 14.7077 13.7438 14.7768C13.6919 14.8459 13.6234 14.9022 13.5441 14.9411C13.4647 14.98 13.3768 15.0004 13.2876 15.0005ZM40.1614 15.0005C40.043 15.001 39.9274 14.9658 39.8312 14.9001L35.3098 11.7782L30.7884 14.9001C30.6918 14.9668 30.5754 15.0025 30.4561 15.0021C30.3367 15.0017 30.2206 14.9652 30.1245 14.8978C30.0284 14.8304 29.9574 14.7356 29.9215 14.6272C29.8857 14.5188 29.887 14.4024 29.9253 14.2947L31.6887 9.32026L27.1184 6.33533C27.0194 6.27075 26.9447 6.17771 26.9052 6.0698C26.8656 5.9619 26.8634 5.84479 26.8987 5.73557C26.9341 5.62636 27.0052 5.53078 27.1016 5.46278C27.1981 5.39479 27.3148 5.35795 27.4348 5.35765H33.0732L34.7747 0.370489C34.8114 0.262818 34.8829 0.168971 34.979 0.102411C35.0752 0.0358515 35.191 0 35.3098 0C35.4286 0 35.5444 0.0358515 35.6406 0.102411C35.7367 0.168971 35.8082 0.262818 35.8449 0.370489L37.5464 5.35933H43.1848C43.3049 5.35927 43.422 5.39585 43.5187 5.46372C43.6154 5.53158 43.6868 5.62716 43.7224 5.73645C43.7579 5.84574 43.7558 5.96301 43.7163 6.07108C43.6769 6.17915 43.6021 6.27234 43.503 6.33701L38.9309 9.32026L40.6933 14.2934C40.7218 14.3739 40.7299 14.4597 40.7167 14.5438C40.7036 14.6278 40.6696 14.7077 40.6176 14.7768C40.5657 14.8459 40.4972 14.9022 40.4178 14.9411C40.3385 14.98 40.2506 15.0004 40.1614 15.0005ZM66.705 14.9001C66.8012 14.9658 66.9167 15.001 67.0351 15.0005C67.1244 15.0004 67.2123 14.98 67.2916 14.9411C67.371 14.9022 67.4394 14.8459 67.4914 14.7768C67.5434 14.7077 67.5773 14.6278 67.5905 14.5438C67.6036 14.4597 67.5956 14.3739 67.5671 14.2934L65.8047 9.32026L70.3767 6.33701C70.4759 6.27234 70.5506 6.17915 70.5901 6.07108C70.6296 5.96301 70.6317 5.84574 70.5961 5.73645C70.5606 5.62716 70.4892 5.53158 70.3925 5.46372C70.2957 5.39585 70.1787 5.35927 70.0586 5.35933H64.4202L62.7187 0.370489C62.682 0.262818 62.6105 0.168971 62.5144 0.102411C62.4182 0.0358515 62.3024 0 62.1836 0C62.0647 0 61.9489 0.0358515 61.8528 0.102411C61.7567 0.168971 61.6852 0.262818 61.6485 0.370489L59.9469 5.35765H54.3086C54.1886 5.35795 54.0718 5.39479 53.9754 5.46278C53.8789 5.53078 53.8079 5.62636 53.7725 5.73557C53.7372 5.84479 53.7394 5.9619 53.7789 6.0698C53.8185 6.17771 53.8932 6.27075 53.9922 6.33533L58.5625 9.32026L56.799 14.2947C56.7608 14.4024 56.7595 14.5188 56.7953 14.6272C56.8311 14.7356 56.9022 14.8304 56.9983 14.8978C57.0944 14.9652 57.2105 15.0017 57.3298 15.0021C57.4492 15.0025 57.5655 14.9668 57.6621 14.9001L62.1836 11.7782L66.705 14.9001ZM93.9089 15.0005C93.7905 15.001 93.675 14.9658 93.5788 14.9001L89.0574 11.7782L84.5359 14.9001C84.4393 14.9668 84.3229 15.0025 84.2036 15.0021C84.0843 15.0017 83.9682 14.9652 83.8721 14.8978C83.776 14.8304 83.7049 14.7356 83.6691 14.6272C83.6333 14.5188 83.6346 14.4024 83.6728 14.2947L85.4363 9.32026L80.866 6.33533C80.767 6.27075 80.6922 6.17771 80.6527 6.0698C80.6132 5.9619 80.6109 5.84479 80.6463 5.73557C80.6816 5.62636 80.7527 5.53078 80.8492 5.46278C80.9456 5.39479 81.0624 5.35795 81.1824 5.35765H86.8207L88.5223 0.370489C88.5589 0.262818 88.6305 0.168971 88.7266 0.102411C88.8227 0.0358515 88.9385 0 89.0574 0C89.1762 0 89.292 0.0358515 89.3881 0.102411C89.4843 0.168971 89.5558 0.262818 89.5924 0.370489L91.294 5.35933H96.9324C97.0525 5.35927 97.1695 5.39585 97.2662 5.46372C97.363 5.53158 97.4344 5.62716 97.4699 5.73645C97.5055 5.84574 97.5034 5.96301 97.4639 6.07108C97.4244 6.17915 97.3496 6.27234 97.2505 6.33701L92.6785 9.32026L94.4408 14.2934C94.4694 14.3739 94.4774 14.4597 94.4643 14.5438C94.4511 14.6278 94.4172 14.7077 94.3652 14.7768C94.3132 14.8459 94.2447 14.9022 94.1654 14.9411C94.0861 14.98 93.9982 15.0004 93.9089 15.0005ZM120.453 14.9001C120.549 14.9658 120.664 15.001 120.783 15.0005C120.872 15.0004 120.96 14.98 121.039 14.9411C121.119 14.9022 121.187 14.8459 121.239 14.7768C121.291 14.7077 121.325 14.6278 121.338 14.5438C121.351 14.4597 121.343 14.3739 121.315 14.2934L119.552 9.32026L124.124 6.33701C124.223 6.27234 124.298 6.17915 124.338 6.07108C124.377 5.96301 124.379 5.84574 124.344 5.73645C124.308 5.62716 124.237 5.53158 124.14 5.46372C124.043 5.39585 123.926 5.35927 123.806 5.35933H118.168L116.466 0.370489C116.43 0.262818 116.358 0.168971 116.262 0.102411C116.166 0.0358515 116.05 0 115.931 0C115.812 0 115.696 0.0358515 115.6 0.102411C115.504 0.168971 115.433 0.262818 115.396 0.370489L113.694 5.35765H108.056C107.936 5.35795 107.819 5.39479 107.723 5.46278C107.627 5.53078 107.555 5.62636 107.52 5.73557C107.485 5.84479 107.487 5.9619 107.526 6.0698C107.566 6.17771 107.641 6.27075 107.74 6.33533L112.31 9.32026L110.547 14.2947C110.508 14.4024 110.507 14.5188 110.543 14.6272C110.579 14.7356 110.65 14.8304 110.746 14.8978C110.842 14.9652 110.958 15.0017 111.077 15.0021C111.197 15.0025 111.313 14.9668 111.41 14.9001L115.931 11.7782L120.453 14.9001Z" fill="url(#paint0_linear_907_802)"/>
<path fill-rule="evenodd" clip-rule="evenodd" d="M13.2876 15.0005C13.1692 15.001 13.0537 14.9658 12.9575 14.9001L8.43602 11.7782L3.91458 14.9001C3.81798 14.9668 3.7016 15.0025 3.58227 15.0021C3.46294 15.0017 3.34684 14.9652 3.25076 14.8978C3.15467 14.8304 3.08358 14.7356 3.04776 14.6272C3.01194 14.5188 3.01324 14.4024 3.05149 14.2947L4.81493 9.32026L0.244616 6.33533C0.14562 6.27075 0.0709031 6.17771 0.0313829 6.0698C-0.00813729 5.9619 -0.01039 5.84479 0.024954 5.73557C0.060298 5.62636 0.131386 5.53078 0.227832 5.46278C0.324278 5.39479 0.441027 5.35795 0.561022 5.35765H6.19938L7.90094 0.370489C7.9376 0.262818 8.00912 0.168971 8.10525 0.102411C8.20138 0.0358515 8.31717 0 8.43602 0C8.55487 0 8.67067 0.0358515 8.76679 0.102411C8.86292 0.168971 8.93444 0.262818 8.9711 0.370489L10.6727 5.35933H16.311C16.4312 5.35927 16.5482 5.39585 16.6449 5.46372C16.7416 5.53158 16.813 5.62716 16.8486 5.73645C16.8842 5.84574 16.882 5.96301 16.8426 6.07108C16.8031 6.17915 16.7283 6.27234 16.6292 6.33701L12.0571 9.32026L13.8195 14.2934C13.8481 14.3739 13.8561 14.4597 13.8429 14.5438C13.8298 14.6278 13.7958 14.7077 13.7438 14.7768C13.6919 14.8459 13.6234 14.9022 13.5441 14.9411C13.4647 14.98 13.3768 15.0004 13.2876 15.0005ZM40.1614 15.0005C40.043 15.001 39.9274 14.9658 39.8312 14.9001L35.3098 11.7782L30.7884 14.9001C30.6918 14.9668 30.5754 15.0025 30.4561 15.0021C30.3367 15.0017 30.2206 14.9652 30.1245 14.8978C30.0284 14.8304 29.9574 14.7356 29.9215 14.6272C29.8857 14.5188 29.887 14.4024 29.9253 14.2947L31.6887 9.32026L27.1184 6.33533C27.0194 6.27075 26.9447 6.17771 26.9052 6.0698C26.8656 5.9619 26.8634 5.84479 26.8987 5.73557C26.9341 5.62636 27.0052 5.53078 27.1016 5.46278C27.1981 5.39479 27.3148 5.35795 27.4348 5.35765H33.0732L34.7747 0.370489C34.8114 0.262818 34.8829 0.168971 34.979 0.102411C35.0752 0.0358515 35.191 0 35.3098 0C35.4286 0 35.5444 0.0358515 35.6406 0.102411C35.7367 0.168971 35.8082 0.262818 35.8449 0.370489L37.5464 5.35933H43.1848C43.3049 5.35927 43.422 5.39585 43.5187 5.46372C43.6154 5.53158 43.6868 5.62716 43.7224 5.73645C43.7579 5.84574 43.7558 5.96301 43.7163 6.07108C43.6769 6.17915 43.6021 6.27234 43.503 6.33701L38.9309 9.32026L40.6933 14.2934C40.7218 14.3739 40.7299 14.4597 40.7167 14.5438C40.7036 14.6278 40.6696 14.7077 40.6176 14.7768C40.5657 14.8459 40.4972 14.9022 40.4178 14.9411C40.3385 14.98 40.2506 15.0004 40.1614 15.0005ZM66.705 14.9001C66.8012 14.9658 66.9167 15.001 67.0351 15.0005C67.1244 15.0004 67.2123 14.98 67.2916 14.9411C67.371 14.9022 67.4394 14.8459 67.4914 14.7768C67.5434 14.7077 67.5773 14.6278 67.5905 14.5438C67.6036 14.4597 67.5956 14.3739 67.5671 14.2934L65.8047 9.32026L70.3767 6.33701C70.4759 6.27234 70.5506 6.17915 70.5901 6.07108C70.6296 5.96301 70.6317 5.84574 70.5961 5.73645C70.5606 5.62716 70.4892 5.53158 70.3925 5.46372C70.2957 5.39585 70.1787 5.35927 70.0586 5.35933H64.4202L62.7187 0.370489C62.682 0.262818 62.6105 0.168971 62.5144 0.102411C62.4182 0.0358515 62.3024 0 62.1836 0C62.0647 0 61.9489 0.0358515 61.8528 0.102411C61.7567 0.168971 61.6852 0.262818 61.6485 0.370489L59.9469 5.35765H54.3086C54.1886 5.35795 54.0718 5.39479 53.9754 5.46278C53.8789 5.53078 53.8079 5.62636 53.7725 5.73557C53.7372 5.84479 53.7394 5.9619 53.7789 6.0698C53.8185 6.17771 53.8932 6.27075 53.9922 6.33533L58.5625 9.32026L56.799 14.2947C56.7608 14.4024 56.7595 14.5188 56.7953 14.6272C56.8311 14.7356 56.9022 14.8304 56.9983 14.8978C57.0944 14.9652 57.2105 15.0017 57.3298 15.0021C57.4492 15.0025 57.5655 14.9668 57.6621 14.9001L62.1836 11.7782L66.705 14.9001ZM93.9089 15.0005C93.7905 15.001 93.675 14.9658 93.5788 14.9001L89.0574 11.7782L84.5359 14.9001C84.4393 14.9668 84.3229 15.0025 84.2036 15.0021C84.0843 15.0017 83.9682 14.9652 83.8721 14.8978C83.776 14.8304 83.7049 14.7356 83.6691 14.6272C83.6333 14.5188 83.6346 14.4024 83.6728 14.2947L85.4363 9.32026L80.866 6.33533C80.767 6.27075 80.6922 6.17771 80.6527 6.0698C80.6132 5.9619 80.6109 5.84479 80.6463 5.73557C80.6816 5.62636 80.7527 5.53078 80.8492 5.46278C80.9456 5.39479 81.0624 5.35795 81.1824 5.35765H86.8207L88.5223 0.370489C88.5589 0.262818 88.6305 0.168971 88.7266 0.102411C88.8227 0.0358515 88.9385 0 89.0574 0C89.1762 0 89.292 0.0358515 89.3881 0.102411C89.4843 0.168971 89.5558 0.262818 89.5924 0.370489L91.294 5.35933H96.9324C97.0525 5.35927 97.1695 5.39585 97.2662 5.46372C97.363 5.53158 97.4344 5.62716 97.4699 5.73645C97.5055 5.84574 97.5034 5.96301 97.4639 6.07108C97.4244 6.17915 97.3496 6.27234 97.2505 6.33701L92.6785 9.32026L94.4408 14.2934C94.4694 14.3739 94.4774 14.4597 94.4643 14.5438C94.4511 14.6278 94.4172 14.7077 94.3652 14.7768C94.3132 14.8459 94.2447 14.9022 94.1654 14.9411C94.0861 14.98 93.9982 15.0004 93.9089 15.0005ZM120.453 14.9001C120.549 14.9658 120.664 15.001 120.783 15.0005C120.872 15.0004 120.96 14.98 121.039 14.9411C121.119 14.9022 121.187 14.8459 121.239 14.7768C121.291 14.7077 121.325 14.6278 121.338 14.5438C121.351 14.4597 121.343 14.3739 121.315 14.2934L119.552 9.32026L124.124 6.33701C124.223 6.27234 124.298 6.17915 124.338 6.07108C124.377 5.96301 124.379 5.84574 124.344 5.73645C124.308 5.62716 124.237 5.53158 124.14 5.46372C124.043 5.39585 123.926 5.35927 123.806 5.35933H118.168L116.466 0.370489C116.43 0.262818 116.358 0.168971 116.262 0.102411C116.166 0.0358515 116.05 0 115.931 0C115.812 0 115.696 0.0358515 115.6 0.102411C115.504 0.168971 115.433 0.262818 115.396 0.370489L113.694 5.35765H108.056C107.936 5.35795 107.819 5.39479 107.723 5.46278C107.627 5.53078 107.555 5.62636 107.52 5.73557C107.485 5.84479 107.487 5.9619 107.526 6.0698C107.566 6.17771 107.641 6.27075 107.74 6.33533L112.31 9.32026L110.547 14.2947C110.508 14.4024 110.507 14.5188 110.543 14.6272C110.579 14.7356 110.65 14.8304 110.746 14.8978C110.842 14.9652 110.958 15.0017 111.077 15.0021C111.197 15.0025 111.313 14.9668 111.41 14.9001L115.931 11.7782L120.453 14.9001Z" fill="#EAB451"/>
</g>
<defs>
<linearGradient id="paint0_linear_907_802" x1="-7.48315e-10" y1="14.5247" x2="108.182" y2="15.0086" gradientUnits="userSpaceOnUse">
<stop offset="0.108108" stop-color="#E9B350"/>
<stop offset="0.526042" stop-color="#93FAFF"/>
<stop offset="0.71875" stop-color="#46ABEC"/>
<stop offset="1" stop-color="#7C1DC9"/>
</linearGradient>
<clipPath id="clip0_907_802">
<rect width="17" height="15" fill="white"/>
</clipPath>
</defs>
</svg>
