<svg width="190" height="85" viewBox="0 0 190 85" fill="none" xmlns="http://www.w3.org/2000/svg">
<path d="M80.6257 50.7346C77.0032 50.7346 73.6406 49.6712 71.396 47.699C69.7002 46.209 68.8853 44.1851 68.8853 42.102C68.8853 40.0443 69.7354 38.0065 71.3958 36.5244C73.4803 34.6647 77.1606 33.5 80.6257 33.5C84.4602 33.5 87.5293 34.4455 89.8755 36.5295C91.5448 38.0124 92.3518 40.0412 92.3518 42.1023C92.3518 44.1 91.4954 46.2275 89.8755 47.699C87.6908 49.684 84.2574 50.7346 80.6257 50.7346V48.4614C82.5484 48.4614 84.3319 47.8116 85.5775 46.5983C86.8144 45.3934 87.3908 43.9123 87.3908 42.102C87.3908 40.3679 86.7691 38.7466 85.5775 37.5967C84.3486 36.4117 82.5225 35.745 80.6257 35.745C78.7231 35.745 76.8957 36.4049 75.6659 37.5967C74.4807 38.7463 73.8574 40.3722 73.8574 42.102C73.8574 43.8266 74.4879 45.4516 75.6659 46.5986C76.8967 47.7973 78.7177 48.4617 80.6257 48.4617V50.7348V50.7346ZM54.149 33.5082C52.2112 33.5082 50.0098 33.8631 48.1394 34.6808C46.4131 35.4348 45 36.6543 45 38.676C44.9992 40.4968 46.1813 41.5632 46.1492 41.5337C46.652 41.9868 47.4614 42.7584 49.5777 43.2115C50.5235 43.4139 52.5456 43.7249 54.5592 43.931C56.5581 44.1374 58.5251 44.3335 59.3263 44.5321C59.9628 44.6906 61.0321 44.9067 61.0321 46.081C61.0321 47.2506 59.9057 47.6076 59.7098 47.685C59.5142 47.7607 58.1629 48.3677 55.7335 48.3677C53.94 48.3677 51.7837 47.8397 50.9978 47.5645C50.0917 47.2488 49.1414 46.8313 48.2549 45.7712C48.0344 45.5084 47.6865 44.7856 47.6865 44.0699H45.488V50.1007H47.9317V49.2859C47.9317 49.1931 48.0502 48.8115 48.4604 48.993C48.9708 49.2201 50.4693 49.8041 52.0359 50.1243C53.3205 50.3872 54.1488 50.5758 55.7458 50.5758C58.3514 50.5758 59.7512 50.1602 60.7189 49.8898C61.6305 49.6342 62.7571 49.1754 63.6721 48.4611C64.1677 48.0748 65.2544 47.0847 65.2544 45.2875C65.2544 43.5624 64.3086 42.4917 63.9759 42.166C63.5227 41.722 62.9691 41.3781 62.3922 41.1129C61.8895 40.8814 61.0964 40.6032 60.4474 40.4477C59.1877 40.145 56.3396 39.7715 54.9775 39.6319C53.5492 39.4859 51.0715 39.285 50.0819 38.9852C49.782 38.8942 49.1703 38.609 49.1703 37.9139C49.1703 37.4196 49.45 37.0005 50.0028 36.6618C50.8803 36.1236 52.6528 35.789 54.5004 35.789C56.6848 35.7812 58.5345 36.27 59.7112 36.785C60.1114 36.96 60.5797 37.2112 60.9516 37.5084C61.3713 37.8434 61.9604 38.5394 62.1735 39.5103H64.1474V34.2607H61.9433V34.8708C61.9433 35.0678 61.7356 35.3238 61.3425 35.1122C60.3562 34.6056 57.5674 33.5127 54.1486 33.5082H54.149ZM102.449 34.4622L113.2 43.9604L113.09 37.5654C113.079 36.7269 112.921 36.3768 111.995 36.3768H109.974V34.4638H119.166V36.3768H117.194C116.249 36.3768 116.189 36.6726 116.178 37.5654L116.345 49.7848H113.196L100.813 38.9656L100.816 46.644C100.826 47.4786 100.866 47.8718 101.745 47.8718H103.953V49.784H94.9247V47.872H97.0352C97.8235 47.872 97.7922 47.1362 97.7922 46.6006V37.6382C97.7922 37.0597 97.7092 36.3782 96.4715 36.3782H94.759V34.4622H102.449ZM129.671 47.8682C129.757 47.8682 130.141 47.8574 130.215 47.8352C130.427 47.7704 130.571 47.6221 130.638 47.4676C130.666 47.4027 130.68 47.1158 130.68 47.0534L130.682 44.0302C130.682 43.9575 130.676 43.9261 130.55 43.764C130.411 43.5871 124.918 37.4935 124.667 37.2251C124.355 36.892 123.807 36.377 122.974 36.377H121.064V34.4632H131.844V36.3746H130.544C130.244 36.3746 130.044 36.6538 130.301 36.9639C130.301 36.9639 133.928 41.2112 133.962 41.2556C133.996 41.3008 134.025 41.3116 134.071 41.2704C134.117 41.2281 137.789 37.0029 137.818 36.9694C137.993 36.7646 137.875 36.3768 137.497 36.3768H136.165V34.4632H145V36.3768H143.026C142.31 36.3768 142.019 36.5065 141.48 37.1027C141.234 37.3756 135.682 43.5787 135.531 43.7468C135.452 43.8346 135.459 43.9571 135.459 44.0298V47.0527C135.459 47.114 135.473 47.4014 135.501 47.4659C135.568 47.6211 135.712 47.7694 135.925 47.8334C135.999 47.8558 136.377 47.8669 136.464 47.8669H138.482V49.7802H127.758V47.8666L129.671 47.8682Z" fill="#AAB0B6"/>
</svg>
